<?xml version="1.0" encoding="UTF-8" standalone="no"?>
<svg width="230px" height="47px" viewBox="0 0 230 47" version="1.1" xmlns="http://www.w3.org/2000/svg" xmlns:xlink="http://www.w3.org/1999/xlink">
    <!-- Generator: Sketch 39.1 (31720) - http://www.bohemiancoding.com/sketch -->
    <title>Group 2</title>
    <desc>Created with Sketch.</desc>
    <defs></defs>
    <g id="Page-1" stroke="none" stroke-width="1" fill="none" fill-rule="evenodd">
        <g id="Desktop-HD-Copy-5" transform="translate(-116.000000, -22.000000)">
            <g id="Group-2" transform="translate(116.000000, 22.000000)">
                <g id="Group" fill="#E9BD8B">
                    <path d="M37.4465528,36.7045069 L37.4425481,36.7069593 L37.4425481,36.7020545 L1.03633401,14.4081044 L1.03633473,14.4081089 C0.354334106,10.1873769 0,5.85820257 0,1.44701351 C0,0.963679452 0.00425398951,0.481330027 0.0127268886,0 L37.4465528,32.3012022 L74.8803783,0 C74.8888512,0.481330027 74.8931052,0.963679452 74.8931052,1.44701351 C74.8931052,5.85820257 74.5387711,10.1873769 73.8567705,14.4081089 L73.8567712,14.4081044 L37.4505576,36.7020545 L37.4505576,36.7069593 L37.4465528,36.7045069 Z" id="Combined-Shape"></path>
                    <path d="M37.4936152,42.5515139 L37.4825942,42.5558631 L37.4825942,42.5471648 L5.25754576,29.8304226 L5.25754576,29.8304226 C3.75012018,25.8479366 2.54877844,21.717156 1.68191125,17.4662162 L37.4936152,39.1877859 L73.3053192,17.4662162 C72.438452,21.717156 71.2371103,25.8479366 69.7296847,29.8304226 L69.7296847,29.8304226 L37.5046363,42.5471648 L37.5046363,42.5558631 L37.4936152,42.5515139 Z" id="Combined-Shape"></path>
                    <path d="M37.4971357,44.5009211 L68.5869905,32.5506757 C67.3640762,35.4410041 65.9775815,38.2465361 64.4389828,40.9558985 L37.5116779,46.9519476 L37.5116779,46.9584239 L37.4971357,46.9551857 L37.4825936,46.9584239 L37.4825936,46.9519476 L10.5552887,40.9558985 C9.01668997,38.2465361 7.63019526,35.4410041 6.40728095,32.5506757 L37.4971357,44.5009211 Z" id="Combined-Shape"></path>
                </g>
                <path d="M96.5912189,19.6201359 C96.7184135,18.8642699 96.7939341,17.6399428 96.8177831,15.947118 L97.6286445,15.947118 C97.6683928,17.0966642 97.7339765,17.7757523 97.8253976,17.9844028 C97.9168187,18.1930533 98.1374185,18.4154793 98.4872035,18.6516874 C98.8369886,18.8878956 99.3060116,19.0985113 99.8942865,19.283541 C100.482561,19.4685707 101.050954,19.5610842 101.59948,19.5610842 C102.402396,19.5610842 103.141703,19.3780256 103.817424,19.011903 C104.493146,18.6457804 104.986017,18.1654978 105.296054,17.5710407 C105.606091,16.9765836 105.761107,16.3407996 105.761107,15.6636696 C105.761107,15.1440118 105.683599,14.6952231 105.52858,14.3172901 C105.373562,13.9393571 105.137063,13.6342595 104.819077,13.4019882 C104.50109,13.1697168 104.107588,13.006342 103.638558,12.9118588 C103.344421,12.8646171 102.756154,12.7858823 101.873742,12.6756518 C100.99133,12.5654214 100.240098,12.4433823 99.6200245,12.3095311 C98.7932598,12.0575757 98.1851199,11.76232 97.7955865,11.423755 C97.4060531,11.0851901 97.0900589,10.6403381 96.8475942,10.0891858 C96.6051296,9.53803353 96.483899,8.94358534 96.483899,8.30582341 C96.483899,7.37673813 96.7283474,6.50081282 97.2172516,5.67802119 C97.7061557,4.85522956 98.429564,4.21550883 99.3874981,3.75883979 C100.345432,3.30217076 101.384835,3.07383966 102.505737,3.07383966 C103.181458,3.07383966 103.918778,3.16241638 104.717719,3.33957247 C105.51666,3.51672856 106.261929,3.77458523 106.95355,4.1131502 C106.842255,4.60918726 106.762759,5.07175456 106.715061,5.50086598 C106.667363,5.92997741 106.63159,6.56182466 106.607741,7.39642669 L105.79688,7.39642669 C105.773031,6.18389166 105.737258,5.52251884 105.68956,5.41228838 C105.490819,5.12883863 105.220534,4.87295034 104.878699,4.64461582 C104.059884,4.18794679 103.205308,3.95961569 102.314946,3.95961569 C101.162245,3.95961569 100.242086,4.30801745 99.5544402,5.00483141 C98.8667945,5.70164537 98.5229768,6.60512788 98.5229768,7.71530606 C98.5229768,8.38456241 98.6461947,8.90224411 98.8926342,9.2683667 C99.1390737,9.63448929 99.5802733,9.92777664 100.216246,10.1482376 C100.653477,10.297836 101.368936,10.4375904 102.362644,10.5675049 C103.356351,10.6974193 104.250675,10.8371737 105.045641,10.9867722 C105.792909,11.2072331 106.345402,11.4690265 106.703137,11.7721603 C107.060872,12.075294 107.355005,12.4729051 107.585545,12.9650053 C107.816085,13.4571056 107.931353,14.0338384 107.931353,14.6952212 C107.931353,16.2620684 107.275516,17.6281182 105.963822,18.7934116 C104.652128,19.958705 102.954901,20.541343 100.87209,20.541343 C99.298057,20.541343 97.8711143,20.234277 96.5912189,19.6201359 L96.5912189,19.6201359 Z M133.147295,18.1084115 L132.682242,19.2067738 C131.752132,19.6713164 130.841909,20.0079079 129.951547,20.2165584 C129.061185,20.4252089 128.091341,20.5295326 127.041986,20.5295326 C125.809789,20.5295326 124.665055,20.3759996 123.60775,20.0689291 C122.550445,19.7618585 121.626311,19.3229117 120.83532,18.7520754 C120.044328,18.1812391 119.398428,17.5415184 118.897599,16.832894 C118.396771,16.1242696 118.015193,15.3546364 117.752854,14.5239711 C117.490515,13.6933059 117.359348,12.7819499 117.359348,11.7898758 C117.359348,9.27819609 118.243734,7.19762743 120.012534,5.54810737 C121.781333,3.89858732 124.196007,3.07383966 127.256626,3.07383966 C127.980045,3.07383966 128.649794,3.11517546 129.265893,3.19784831 C129.881991,3.28052115 130.633223,3.43799087 131.51961,3.67026219 C132.405997,3.90253351 132.948554,4.03835114 133.147295,4.07771916 C132.972403,4.51076739 132.841235,4.93593563 132.753789,5.35323665 C132.626594,6.02249299 132.539149,6.79803136 132.491451,7.67987502 L131.740212,7.67987502 L131.728288,6.28625406 C131.648791,5.51464086 131.217529,4.93987639 130.434487,4.56194339 C129.651445,4.1840104 128.504724,3.99504673 126.994288,3.99504673 C125.865437,4.01079394 124.907517,4.15448506 124.1205,4.4261244 C123.333484,4.69776374 122.639887,5.12686873 122.039687,5.71345223 C121.439488,6.30003573 120.948604,7.04408016 120.56702,7.94560783 C120.185436,8.84713549 119.990672,9.9789491 119.982723,11.3410826 C119.982723,13.7267846 120.718055,15.6459468 122.188743,17.0986268 C123.65943,18.5513068 125.603093,19.2776358 128.01979,19.2776358 C129.108893,19.2776358 130.118485,19.1280396 131.048595,18.8288426 C131.684568,18.6241289 132.316557,18.301316 132.94458,17.8603942 L133.147295,18.1084115 Z M142.122161,20.1988429 L142.122161,19.3957393 C142.750184,19.3878657 143.141699,19.3622769 143.296718,19.318972 C143.451736,19.2756672 143.594828,19.1929956 143.725997,19.0709548 C143.857167,18.9489139 144.045968,18.6320061 144.292408,18.1202218 C144.435502,17.8288985 144.952222,16.7226737 145.842584,14.8015143 L148.823692,8.14047855 C149.149628,7.40823337 149.845213,5.77842178 150.910467,3.25099487 L151.685555,3.25099487 L156.777287,15.096773 C157.604052,17.0179324 158.152571,18.2225757 158.422859,18.7107392 C158.573903,18.9863153 158.738856,19.1674055 158.917723,19.2540151 C159.09659,19.3406248 159.50003,19.3878657 160.128053,19.3957393 L160.128053,20.1988429 C158.887906,20.1201069 158.021406,20.0807394 157.528527,20.0807394 L153.68886,20.1988429 L153.68886,19.3957393 C154.579222,19.3799921 155.119791,19.3524349 155.310582,19.3130669 C155.501374,19.2736989 155.630554,19.2166161 155.698126,19.1418168 C155.765699,19.0670176 155.799484,18.9745041 155.799484,18.8642737 C155.799484,18.6910544 155.743837,18.46666 155.632542,18.1910839 L154.165837,14.5771177 L147.261591,14.5771177 L145.961828,17.6123769 C145.731288,18.1556556 145.61602,18.5532666 145.61602,18.805222 C145.61602,18.9154524 145.647818,19.0059975 145.711415,19.0768599 C145.798861,19.1792168 145.934003,19.2500782 146.116846,19.2894462 C146.410983,19.352435 146.927703,19.3878657 147.667022,19.3957393 L147.667022,20.1988429 C146.323529,20.1279805 145.317912,20.0925498 144.650141,20.0925498 C143.879023,20.0925498 143.036372,20.1279805 142.122161,20.1988429 L142.122161,20.1988429 Z M147.667022,13.5732382 L153.68886,13.5732382 L150.707752,6.45159892 L147.667022,13.5732382 Z M170.092647,20.1988429 L170.092647,19.5847049 C170.585526,19.3563703 170.899532,19.1752802 171.034677,19.0414289 C171.114173,18.9705665 171.16982,18.8800214 171.201619,18.7697909 C171.273166,18.54933 171.320863,18.0769208 171.344712,17.3525493 C171.376511,16.2738655 171.39241,15.6321764 171.39241,15.4274627 L171.39241,9.07349597 C171.39241,8.00268582 171.380485,6.95551218 171.356636,5.93194365 C171.332787,5.18395126 171.275153,4.74106768 171.183732,4.60327961 C171.092311,4.46549154 170.945244,4.36313622 170.742528,4.29621058 C170.539812,4.22928495 169.965457,4.18794915 169.019448,4.17220194 L169.019448,3.41633973 C170.959165,3.47932856 172.159546,3.5108225 172.620626,3.5108225 C173.129404,3.5108225 174.270164,3.47932856 176.042938,3.41633973 L176.042938,4.17220194 C175.096928,4.18794915 174.522574,4.22928495 174.319858,4.29621058 C174.117141,4.36313622 173.976037,4.45564968 173.89654,4.57375374 C173.801144,4.73122582 173.741523,5.11308989 173.717674,5.7193574 C173.709724,5.87682949 173.693825,6.99486449 173.669976,9.07349597 L173.669976,17.0100492 C173.669976,17.8367776 173.685875,18.5099607 173.717674,19.0296185 C174.623935,19.0847338 175.522233,19.112291 176.412595,19.112291 C178.6544,19.112291 180.224434,18.9705682 181.122746,18.6871185 C181.226091,18.4509104 181.317511,18.1792751 181.397008,17.8722045 L181.873985,15.9116869 L182.672922,15.9116869 C182.498029,17.0848539 182.327114,18.462714 182.160171,20.0453084 C181.834235,20.1082972 181.575875,20.1476647 181.385083,20.1634119 C180.971701,20.1870327 180.335738,20.1988429 179.477174,20.1988429 L172.417911,20.1043601 C171.654743,20.1043601 170.879663,20.1358541 170.092647,20.1988429 L170.092647,20.1988429 Z M192.220161,20.1988429 L192.220161,19.454791 C193.054875,19.4469174 193.603393,19.3839295 193.865732,19.2658255 C193.977027,19.2185839 194.056523,19.1437857 194.104221,19.0414289 C194.183717,18.8839568 194.239364,18.4705988 194.271163,17.8013425 C194.318861,16.7620267 194.342709,15.8644493 194.342709,15.1085833 L194.342709,9.07349597 C194.342709,8.00268582 194.330785,6.95551218 194.306936,5.93194365 C194.283087,5.18395126 194.225453,4.74106768 194.134032,4.60327961 C194.042611,4.46549154 193.895544,4.36313622 193.692828,4.29621058 C193.490112,4.22928495 192.915757,4.18794915 191.969747,4.17220194 L191.969747,3.41633973 L195.36821,3.48720181 L198.969389,3.42815007 C200.694465,3.40452926 201.946518,3.39271903 202.725585,3.39271903 C203.512601,3.39271903 204.255883,3.43602321 204.955453,3.52263285 C204.828259,3.97142828 204.740814,4.36116584 204.693116,4.69185721 C204.677217,4.76271965 204.605671,5.58156219 204.478476,7.1484094 L203.727237,7.1484094 C203.735187,6.34530178 203.683515,5.61306759 203.572219,4.95168485 C203.134988,4.77059195 202.654041,4.64855292 202.129363,4.58556409 C201.239001,4.47533363 200.348653,4.42021923 199.458291,4.42021923 C199.267499,4.42021923 198.842198,4.4359662 198.182376,4.46746062 C197.522554,4.49895503 197.049557,4.52651223 196.763369,4.55013305 C196.73157,5.4241031 196.707722,6.24294564 196.691822,7.00668523 L196.644125,10.9985825 C197.574235,11.0458242 198.428811,11.0694446 199.207877,11.0694446 C200.153887,11.0694446 200.960766,11.0261405 201.628537,10.9395308 C201.882926,10.9080364 202.045892,10.8450485 202.117439,10.7505653 C202.188986,10.656082 202.252582,10.3332691 202.30823,9.78211679 L202.379776,8.9553925 L203.095242,8.9553925 L203.095242,9.17978909 L203.03562,11.6363413 L203.095242,14.3881521 L202.260532,14.3881521 L202.224759,13.5850485 C202.208859,13.0024018 202.1552,12.6402215 202.063779,12.4984966 C201.972358,12.3567717 201.799455,12.2583532 201.545066,12.2032379 C201.091935,12.1087547 200.213511,12.0615138 198.909767,12.0615138 C198.377139,12.0615138 197.621933,12.0811975 196.644125,12.1205655 C196.604376,12.9079259 196.584503,14.0771386 196.584503,15.6282386 C196.584503,17.0848553 196.604376,18.1910801 196.644125,18.9469461 C197.788876,19.0335558 199.072727,19.0768599 200.495716,19.0768599 C201.505323,19.0768599 202.224757,19.045366 202.654038,18.9823772 C203.08332,18.9193883 203.480797,18.8130963 203.846481,18.6634978 C203.941877,18.4194161 204.037272,18.0887296 204.132668,17.6714286 C204.30756,16.9706779 204.422829,16.4431543 204.478476,16.0888421 L205.265489,16.0888421 C205.058798,17.6793102 204.955453,18.9981191 204.955453,20.0453084 C204.271783,20.1476652 203.441056,20.1988429 202.463247,20.1988429 L195.344362,20.1043601 C195.241016,20.1043601 194.199626,20.1358541 192.220161,20.1988429 L192.220161,20.1988429 Z M214.538465,20.1988429 L214.538465,19.41936 C215.094942,19.41936 215.462608,19.3819609 215.641475,19.3071617 C215.820343,19.2323625 216.040943,19.0414304 216.303281,18.7343599 C216.56562,18.4272893 217.161836,17.6281305 218.091946,16.3368594 L221.347316,11.8725482 L219.236691,8.31763376 C219.053849,8.0184368 218.690158,7.48107139 218.145606,6.70552138 C217.601054,5.92997138 217.122094,5.34142831 216.708712,4.9398745 C216.533819,4.78240242 216.372841,4.6800471 216.225773,4.63280547 C216.078704,4.58556385 215.631542,4.56194339 214.884274,4.56194339 L214.884274,3.87694326 L218.366208,3.3100466 C218.668295,3.51476031 218.950504,3.78245883 219.212843,4.1131502 C219.586477,4.58556645 220.111146,5.40047225 220.786868,6.55789205 L222.790172,9.99470304 C225.230718,6.56181166 226.49072,4.68398526 226.570217,4.36116749 L226.570217,3.41633973 C227.42878,3.44783414 228.017046,3.46358112 228.335033,3.46358112 C228.653019,3.46358112 229.133966,3.44783414 229.777889,3.41633973 L229.777889,4.1367709 C229.27706,4.16039171 228.963053,4.18991728 228.835859,4.2253485 C228.708664,4.26077972 228.593396,4.30998901 228.49005,4.37297784 C228.346957,4.46746109 228.136294,4.67610847 227.858056,4.99892623 C227.579817,5.321744 227.067072,5.98311682 226.319804,6.98306454 C225.572536,7.98301226 224.8849,8.90814686 224.256877,9.7584961 L223.362545,10.9395308 L227.404927,17.411601 C227.929605,18.2540766 228.319132,18.8130941 228.573521,19.0886703 C228.692766,19.2225216 228.823934,19.3091299 228.967028,19.3484979 C229.110122,19.3878659 229.444002,19.4114864 229.96868,19.41936 L229.96868,20.1988429 C229.102167,20.1673485 228.517876,20.1516015 228.215788,20.1516015 C227.881903,20.1516015 227.289662,20.1673485 226.439048,20.1988429 C225.962069,19.4902185 225.520869,18.793415 225.115436,18.1084115 L221.979311,12.8055656 L220.464908,14.9314281 C218.970372,17.1360373 218.068099,18.6083791 217.758062,19.3484979 L217.734213,20.1988429 C216.907448,20.1673485 216.35098,20.1516015 216.064793,20.1516015 C215.874001,20.1516015 215.36523,20.1673485 214.538465,20.1988429 L214.538465,20.1988429 Z" id="SCALEX" fill="#000000"></path>
                <path d="M98.6358093,43.5169636 C98.6951668,43.1642261 98.7304098,42.5928735 98.7415393,41.8028885 L99.1199413,41.8028885 C99.1384905,42.3393434 99.1690962,42.6562512 99.2117594,42.7536215 C99.2544226,42.8509917 99.3573691,42.9547905 99.5206022,43.0650209 C99.6838352,43.1752514 99.9027126,43.2735388 100.177241,43.3598859 C100.451769,43.4462331 100.717019,43.4894061 100.972998,43.4894061 C101.347692,43.4894061 101.692702,43.4039788 102.008039,43.2331216 C102.323375,43.0622643 102.553382,42.8381324 102.698066,42.5607191 C102.84275,42.2833058 102.91509,41.9866066 102.91509,41.6706126 C102.91509,41.4281056 102.87892,41.2186709 102.806578,41.0423022 C102.734236,40.8659334 102.62387,40.7235546 102.475476,40.6151613 C102.327083,40.506768 102.143448,40.4305264 101.924568,40.3864342 C101.787303,40.3643881 101.512779,40.3276452 101.100987,40.2762043 C100.689194,40.2247634 100.33862,40.1678119 100.049252,40.105348 C99.6634284,39.9877688 99.3796298,39.8499828 99.1978475,39.6919858 C99.0160653,39.5339888 98.8686013,39.3263913 98.7554511,39.0691869 C98.642301,38.8119825 98.5857267,38.5345733 98.5857267,38.2369511 C98.5857267,37.8033779 98.6998026,37.3946128 98.9279579,37.0106434 C99.1561132,36.6266739 99.4937037,36.3281376 99.9407396,36.1150254 C100.387776,35.9019132 100.87283,35.7953586 101.395918,35.7953586 C101.711254,35.7953586 102.055337,35.8366945 102.428176,35.9193673 C102.801015,36.0020401 103.148808,36.1223732 103.471564,36.2803702 C103.419626,36.5118542 103.382528,36.7277189 103.360269,36.9279709 C103.33801,37.1282229 103.321316,37.423085 103.310187,37.8125659 L102.931785,37.8125659 C102.920655,37.2467162 102.903961,36.9380756 102.881702,36.8866347 C102.788956,36.7543582 102.662823,36.6349436 102.5033,36.5283875 C102.121186,36.3152753 101.722384,36.2087208 101.306882,36.2087208 C100.768955,36.2087208 100.339547,36.3713083 100.018646,36.6964881 C99.6977446,37.021668 99.5372964,37.4432932 99.5372964,37.9613763 C99.5372964,38.2736959 99.594798,38.5152807 99.7098031,38.6861379 C99.8248082,38.8569951 100.030701,38.9938626 100.327489,39.0967443 C100.53153,39.166557 100.865411,39.2317757 101.329141,39.2924024 C101.792871,39.3530292 102.210222,39.4182479 102.581206,39.4880605 C102.929931,39.5909423 103.187762,39.7131125 103.354704,39.8545749 C103.521647,39.9960374 103.658909,40.1815892 103.766495,40.411236 C103.87408,40.6408827 103.927872,40.9100247 103.927872,41.21867 C103.927872,41.9498654 103.621815,42.5873553 103.009691,43.1311589 C102.397567,43.6749625 101.605528,43.9468602 100.633549,43.9468602 C99.8990004,43.9468602 99.2330938,43.8035627 98.6358093,43.5169636 L98.6358093,43.5169636 Z M117.81586,36.4402036 L117.81586,36.1040024 L119.156961,35.8449621 C119.305355,35.896403 119.407374,35.9450874 119.463022,35.9910167 C119.518669,36.0369461 119.635527,36.1774878 119.8136,36.4126461 C120.076999,36.7617092 120.381201,37.2375302 120.726216,37.8401234 C121.071232,38.4427166 121.4385,39.1316466 121.828034,39.9069341 C122.221277,39.3080153 122.623789,38.6576654 123.035581,37.9558648 L124.22087,35.955192 L125.072274,35.955192 L125.072274,36.1040024 C124.868233,36.3281376 124.493544,36.8149815 123.948198,37.5645486 C123.632861,37.9981218 123.22293,38.6282631 122.718391,39.4549915 C122.403055,39.965726 122.224985,40.2789595 122.184177,40.3947015 C122.143369,40.5104435 122.122965,40.6197537 122.122965,40.7226354 L122.122965,41.1470206 C122.122965,41.646732 122.128529,42.1335759 122.139659,42.6075668 C122.150788,42.95663 122.177684,43.1642275 122.220348,43.2303658 C122.263011,43.2965041 122.331642,43.3451885 122.426243,43.3764204 C122.520844,43.4076524 122.788876,43.4269424 123.230347,43.4342911 L123.230347,43.7870268 C122.625643,43.757632 122.102563,43.7429349 121.661092,43.7429349 C121.23817,43.7429349 120.679847,43.757632 119.986107,43.7870268 L119.986107,43.4342911 C120.423868,43.4269424 120.690972,43.4076524 120.787428,43.3764204 C120.883884,43.3451885 120.948806,43.3020155 120.982194,43.2469003 C121.030422,43.1734133 121.0601,42.9952101 121.07123,42.7122852 C121.07494,42.6351239 121.082359,42.1133743 121.093489,41.1470206 L121.093489,40.5021756 C121.015582,40.3368299 120.939532,40.1880211 120.865335,40.0557445 C120.813397,39.9638858 120.624198,39.6478966 120.297732,39.1077673 L119.930459,38.5125258 C119.641092,38.0422092 119.425924,37.7078485 119.28495,37.5094337 C119.014132,37.1273014 118.78969,36.8535666 118.611617,36.6882209 C118.515161,36.5963622 118.41407,36.532062 118.308339,36.4953186 C118.202609,36.4585751 118.038451,36.4402036 117.81586,36.4402036 L117.81586,36.4402036 Z M139.082686,43.5169636 C139.142044,43.1642261 139.177287,42.5928735 139.188416,41.8028885 L139.566818,41.8028885 C139.585367,42.3393434 139.615973,42.6562512 139.658636,42.7536215 C139.701299,42.8509917 139.804246,42.9547905 139.967479,43.0650209 C140.130712,43.1752514 140.349589,43.2735388 140.624118,43.3598859 C140.898646,43.4462331 141.163896,43.4894061 141.419875,43.4894061 C141.794569,43.4894061 142.139579,43.4039788 142.454916,43.2331216 C142.770252,43.0622643 143.000259,42.8381324 143.144943,42.5607191 C143.289626,42.2833058 143.361967,41.9866066 143.361967,41.6706126 C143.361967,41.4281056 143.325797,41.2186709 143.253455,41.0423022 C143.181113,40.8659334 143.070747,40.7235546 142.922353,40.6151613 C142.77396,40.506768 142.590325,40.4305264 142.371444,40.3864342 C142.23418,40.3643881 141.959656,40.3276452 141.547864,40.2762043 C141.136071,40.2247634 140.785497,40.1678119 140.496129,40.105348 C140.110305,39.9877688 139.826507,39.8499828 139.644724,39.6919858 C139.462942,39.5339888 139.315478,39.3263913 139.202328,39.0691869 C139.089178,38.8119825 139.032604,38.5345733 139.032604,38.2369511 C139.032604,37.8033779 139.14668,37.3946128 139.374835,37.0106434 C139.60299,36.6266739 139.940581,36.3281376 140.387617,36.1150254 C140.834652,35.9019132 141.319707,35.7953586 141.842795,35.7953586 C142.158131,35.7953586 142.502214,35.8366945 142.875053,35.9193673 C143.247892,36.0020401 143.595685,36.1223732 143.918441,36.2803702 C143.866503,36.5118542 143.829405,36.7277189 143.807146,36.9279709 C143.784887,37.1282229 143.768193,37.423085 143.757063,37.8125659 L143.378661,37.8125659 C143.367532,37.2467162 143.350838,36.9380756 143.328579,36.8866347 C143.235833,36.7543582 143.1097,36.6349436 142.950177,36.5283875 C142.568063,36.3152753 142.169261,36.2087208 141.753759,36.2087208 C141.215832,36.2087208 140.786424,36.3713083 140.465523,36.6964881 C140.144622,37.021668 139.984173,37.4432932 139.984173,37.9613763 C139.984173,38.2736959 140.041675,38.5152807 140.15668,38.6861379 C140.271685,38.8569951 140.477578,38.9938626 140.774366,39.0967443 C140.978407,39.166557 141.312288,39.2317757 141.776018,39.2924024 C142.239748,39.3530292 142.657099,39.4182479 143.028083,39.4880605 C143.376808,39.5909423 143.634638,39.7131125 143.801581,39.8545749 C143.968524,39.9960374 144.105786,40.1815892 144.213372,40.411236 C144.320957,40.6408827 144.374749,40.9100247 144.374749,41.21867 C144.374749,41.9498654 144.068692,42.5873553 143.456568,43.1311589 C142.844444,43.6749625 142.052405,43.9468602 141.080426,43.9468602 C140.345877,43.9468602 139.679971,43.8035627 139.082686,43.5169636 L139.082686,43.5169636 Z M158.774693,37.779497 L158.429679,37.779497 C158.425969,36.9013276 158.40742,36.2932321 158.374032,35.955192 C158.778404,35.9698894 159.412778,35.9882609 160.277171,36.010307 C160.978331,36.0250044 161.445764,36.0323529 161.679484,36.0323529 C161.931753,36.0323529 162.516045,36.0213301 163.432376,35.999284 C164.096437,35.9845866 164.580564,35.9698894 164.884771,35.955192 C164.840253,36.3667191 164.810575,36.9748146 164.795736,37.779497 L164.439593,37.779497 L164.395075,37.2503934 C164.365396,36.9307251 164.344992,36.7488476 164.333863,36.7047554 C164.322733,36.6606632 164.306966,36.6294317 164.286562,36.61106 C164.266158,36.5926882 164.235552,36.577991 164.194744,36.566968 C164.142806,36.5559449 163.957317,36.5412478 163.638271,36.522876 C163.319224,36.5045043 163.066959,36.4953186 162.881467,36.4953186 L162.202569,36.4953186 C162.165471,36.848056 162.146922,37.323877 162.146922,37.9227958 L162.146922,41.1470206 C162.146922,41.646732 162.152486,42.1335759 162.163616,42.6075668 C162.174746,42.95663 162.201641,43.1642275 162.244305,43.2303658 C162.286968,43.2965041 162.355599,43.3451885 162.4502,43.3764204 C162.544801,43.4076524 162.812833,43.4269424 163.254304,43.4342911 L163.254304,43.7870268 C162.590242,43.757632 162.091276,43.7429349 161.75739,43.7429349 C161.612707,43.7429349 161.03398,43.757632 160.021193,43.7870268 L160.021193,43.4342911 C160.462664,43.4269424 160.731624,43.4076524 160.82808,43.3764204 C160.924536,43.3451885 160.989457,43.3020155 161.022845,43.2469003 C161.071073,43.1734133 161.100752,42.9952101 161.111881,42.7122852 C161.111881,42.6351239 161.119301,42.1133743 161.13414,41.1470206 L161.13414,37.9338188 C161.13414,37.7794962 161.13043,37.6104787 161.123011,37.4267613 L161.089622,36.4953186 L160.260477,36.4953186 C159.781907,36.4953186 159.401654,36.51369 159.119706,36.5504335 C159.03067,36.5614566 158.973168,36.5853395 158.947199,36.6220829 C158.906391,36.6845469 158.869293,36.8847959 158.835905,37.2228359 L158.774693,37.779497 Z M178.945266,43.7870268 L178.945266,43.4398026 C179.334799,43.4361283 179.590775,43.4067339 179.713199,43.3516187 C179.765137,43.3295726 179.802235,43.2946668 179.824494,43.2469003 C179.861593,43.1734133 179.887561,42.9805129 179.9024,42.6681933 C179.924659,42.1831793 179.935789,41.7643098 179.935789,41.4115724 L179.935789,38.5951983 C179.935789,38.0954869 179.930224,37.6068058 179.919095,37.1291405 C179.907965,36.7800774 179.881069,36.5733984 179.838406,36.5090973 C179.795743,36.4447962 179.727112,36.3970304 179.632511,36.3657984 C179.53791,36.3345665 179.269878,36.3152764 178.828407,36.3079277 L178.828407,35.955192 L180.414356,35.988261 L182.094906,35.9607035 C182.899942,35.9496805 183.484233,35.944169 183.847797,35.944169 C184.215072,35.944169 184.561937,35.9643776 184.888403,36.0047955 C184.829045,36.2142333 184.788238,36.3961109 184.765979,36.5504335 C184.758559,36.5835026 184.725171,36.9656292 184.665813,37.6968245 L184.315235,37.6968245 C184.318945,37.322041 184.294831,36.9803317 184.242894,36.6716864 C184.038852,36.5871764 183.81441,36.5302248 183.569561,36.50083 C183.154058,36.4493892 182.738562,36.4236691 182.32306,36.4236691 C182.234024,36.4236691 182.03555,36.4310177 181.727633,36.4457151 C181.419717,36.4604125 181.198984,36.4732725 181.06543,36.4842956 C181.050591,36.8921483 181.039461,37.2742748 181.032042,37.6306866 L181.009783,39.493572 C181.443834,39.5156181 181.842636,39.526641 182.206201,39.526641 C182.647672,39.526641 183.024215,39.5064324 183.335842,39.4660145 C183.454557,39.4513171 183.530607,39.4219228 183.563996,39.3778306 C183.597384,39.3337384 183.627063,39.1830924 183.653032,38.925888 L183.68642,38.5400833 L184.020304,38.5400833 L184.020304,38.6448017 L183.99248,39.7911927 L184.020304,41.0753711 L183.630773,41.0753711 L183.614078,40.7005895 C183.606659,40.4286877 183.581618,40.2596702 183.538955,40.1935319 C183.496291,40.1273936 183.415604,40.081465 183.296889,40.0557445 C183.085428,40.0116523 182.675496,39.9896066 182.067082,39.9896066 C181.818523,39.9896066 181.466093,39.9987923 181.009783,40.017164 C180.991233,40.3845989 180.981959,40.9302315 180.981959,41.6540781 C180.981959,42.3338326 180.991233,42.8500709 181.009783,43.2028083 C181.544,43.2432262 182.14313,43.2634348 182.807192,43.2634348 C183.278342,43.2634348 183.614077,43.2487376 183.814409,43.2193428 C184.01474,43.189948 184.20023,43.1403451 184.370882,43.0705324 C184.415401,42.9566276 184.459918,42.8023073 184.504436,42.6075668 C184.586053,42.2805498 184.639844,42.0343722 184.665813,41.8690265 L185.033086,41.8690265 C184.93663,42.6112449 184.888403,43.226689 184.888403,43.7153774 C184.569356,43.7631439 184.181684,43.7870268 183.725373,43.7870268 L180.403227,43.7429349 C180.354999,43.7429349 179.869017,43.757632 178.945266,43.7870268 L178.945266,43.7870268 Z M199.154793,36.3079277 L199.154793,35.955192 C199.544326,35.9698894 199.91716,35.977238 200.273304,35.977238 C200.633159,35.977238 200.978169,35.9698894 201.308345,35.955192 C201.634811,36.6900617 201.933449,37.3349002 202.204267,37.8897269 L204.313302,42.1886932 L206.216441,38.2479741 C206.735819,37.1750643 207.082684,36.4108112 207.257046,35.955192 C207.65029,35.9698894 207.982316,35.977238 208.253134,35.977238 C208.501693,35.977238 208.904205,35.9698894 209.460681,35.955192 L209.460681,36.3079277 C209.01921,36.3152764 208.751178,36.3345665 208.656577,36.3657984 C208.561976,36.3970304 208.496128,36.4402033 208.459029,36.4953186 C208.410801,36.5688055 208.382978,36.7470088 208.375558,37.0299336 C208.371848,37.1034206 208.362574,37.6251702 208.347734,38.5951983 L208.347734,41.1470206 C208.347734,41.646732 208.355154,42.1335759 208.369993,42.6075668 C208.381123,42.95663 208.408019,43.1642275 208.450682,43.2303658 C208.493345,43.2965041 208.561976,43.3451885 208.656577,43.3764204 C208.751178,43.4076524 209.01921,43.4269424 209.460681,43.4342911 L209.460681,43.7870268 C208.711293,43.7539577 208.182649,43.7374234 207.874732,43.7374234 C207.626173,43.7374234 207.077124,43.7539577 206.227571,43.7870268 L206.227571,43.4342911 C206.669042,43.4269424 206.938001,43.4076524 207.034457,43.3764204 C207.130913,43.3451885 207.195834,43.3020155 207.229223,43.2469003 C207.277451,43.1734133 207.305274,42.9952101 207.312694,42.7122852 C207.316404,42.6351239 207.325678,42.1133743 207.340517,41.1470206 L207.340517,37.101583 L205.420684,41.0808826 C205.120187,41.7018475 204.884615,42.2015515 204.713963,42.5800094 C204.591538,42.8555855 204.406049,43.2928264 204.157489,43.8917452 L203.940465,43.8917452 C203.892237,43.75212 203.847719,43.640054 203.806911,43.555544 L203.428509,42.7563772 L200.768566,37.2834624 L200.768566,41.1470206 C200.768566,41.646732 200.775985,42.1335759 200.790825,42.6075668 C200.801954,42.95663 200.82885,43.1642275 200.871513,43.2303658 C200.914177,43.2965041 200.982808,43.3451885 201.077409,43.3764204 C201.172009,43.4076524 201.440042,43.4269424 201.881513,43.4342911 L201.881513,43.7870268 L200.540412,43.7429349 L199.154793,43.7870268 L199.154793,43.4342911 C199.592554,43.4269424 199.859659,43.4076524 199.956114,43.3764204 C200.05257,43.3451885 200.119346,43.3020155 200.156445,43.2469003 C200.200963,43.1734133 200.228786,42.9952101 200.239916,42.7122852 C200.243626,42.6351239 200.251045,42.1133743 200.262175,41.1470206 L200.262175,38.5951983 C200.262175,38.0954869 200.25661,37.6068058 200.245481,37.1291405 C200.234351,36.7800774 200.207455,36.5733984 200.164792,36.5090973 C200.122129,36.4447962 200.053498,36.3970304 199.958897,36.3657984 C199.864296,36.3345665 199.596264,36.3152764 199.154793,36.3079277 L199.154793,36.3079277 Z M223.515611,43.5169636 C223.574969,43.1642261 223.610212,42.5928735 223.621341,41.8028885 L223.999743,41.8028885 C224.018293,42.3393434 224.048898,42.6562512 224.091561,42.7536215 C224.134225,42.8509917 224.237171,42.9547905 224.400404,43.0650209 C224.563637,43.1752514 224.782515,43.2735388 225.057043,43.3598859 C225.331571,43.4462331 225.596821,43.4894061 225.8528,43.4894061 C226.227494,43.4894061 226.572504,43.4039788 226.887841,43.2331216 C227.203177,43.0622643 227.433184,42.8381324 227.577868,42.5607191 C227.722552,42.2833058 227.794892,41.9866066 227.794892,41.6706126 C227.794892,41.4281056 227.758722,41.2186709 227.68638,41.0423022 C227.614038,40.8659334 227.503672,40.7235546 227.355278,40.6151613 C227.206885,40.506768 227.02325,40.4305264 226.80437,40.3864342 C226.667105,40.3643881 226.392581,40.3276452 225.980789,40.2762043 C225.568996,40.2247634 225.218422,40.1678119 224.929054,40.105348 C224.54323,39.9877688 224.259432,39.8499828 224.07765,39.6919858 C223.895867,39.5339888 223.748403,39.3263913 223.635253,39.0691869 C223.522103,38.8119825 223.465529,38.5345733 223.465529,38.2369511 C223.465529,37.8033779 223.579605,37.3946128 223.80776,37.0106434 C224.035915,36.6266739 224.373506,36.3281376 224.820542,36.1150254 C225.267578,35.9019132 225.752632,35.7953586 226.27572,35.7953586 C226.591056,35.7953586 226.935139,35.8366945 227.307978,35.9193673 C227.680817,36.0020401 228.02861,36.1223732 228.351366,36.2803702 C228.299428,36.5118542 228.26233,36.7277189 228.240071,36.9279709 C228.217812,37.1282229 228.201118,37.423085 228.189989,37.8125659 L227.811587,37.8125659 C227.800457,37.2467162 227.783763,36.9380756 227.761504,36.8866347 C227.668758,36.7543582 227.542625,36.6349436 227.383102,36.5283875 C227.000988,36.3152753 226.602186,36.2087208 226.186684,36.2087208 C225.648757,36.2087208 225.219349,36.3713083 224.898448,36.6964881 C224.577547,37.021668 224.417098,37.4432932 224.417098,37.9613763 C224.417098,38.2736959 224.4746,38.5152807 224.589605,38.6861379 C224.70461,38.8569951 224.910503,38.9938626 225.207291,39.0967443 C225.411332,39.166557 225.745213,39.2317757 226.208943,39.2924024 C226.672673,39.3530292 227.090024,39.4182479 227.461008,39.4880605 C227.809733,39.5909423 228.067564,39.7131125 228.234506,39.8545749 C228.401449,39.9960374 228.538711,40.1815892 228.646297,40.411236 C228.753882,40.6408827 228.807674,40.9100247 228.807674,41.21867 C228.807674,41.9498654 228.501617,42.5873553 227.889493,43.1311589 C227.277369,43.6749625 226.48533,43.9468602 225.513351,43.9468602 C224.778803,43.9468602 224.112896,43.8035627 223.515611,43.5169636 L223.515611,43.5169636 Z" id="SYSTEMS" fill="#000000"></path>
            </g>
        </g>
    </g>
</svg>