<?xml version="1.0" encoding="UTF-8" standalone="no"?>
<svg width="186px" height="140px" viewBox="0 0 186 140" version="1.1" xmlns="http://www.w3.org/2000/svg" xmlns:xlink="http://www.w3.org/1999/xlink">
    <!-- Generator: Sketch 3.8.3 (29802) - http://www.bohemiancoding.com/sketch -->
    <title>Group 7</title>
    <desc>Created with Sketch.</desc>
    <defs></defs>
    <g id="Page-1" stroke="none" stroke-width="1" fill="none" fill-rule="evenodd">
        <g id="Desktop-HD-Copy-5" transform="translate(-590.000000, -82.000000)" fill="#FFFFFF">
            <g id="Group-7" transform="translate(590.000000, 82.000000)">
                <path d="M0.149199313,108.17155 C0.326029013,107.11303 0.431020073,105.398474 0.464175642,103.02783 L1.59145934,103.02783 C1.64671862,104.637662 1.73789507,105.588662 1.86499142,105.880858 C1.99208776,106.173054 2.29877218,106.484541 2.78505385,106.815328 C3.27133553,107.146116 3.92338526,107.441063 4.74122263,107.70018 C5.55905999,107.959297 6.34925586,108.088854 7.11183394,108.088854 C8.22807142,108.088854 9.25587864,107.832497 10.1952864,107.319777 C11.1346942,106.807056 11.819899,106.134465 12.2509214,105.301983 C12.6819438,104.469501 12.8974518,103.579144 12.8974518,102.630887 C12.8974518,101.903154 12.7896978,101.274667 12.5741866,100.745407 C12.3586754,100.216147 12.0298876,99.7888865 11.5878133,99.4636121 C11.1457391,99.1383377 10.5986804,98.9095465 9.94662089,98.7772314 C9.53770221,98.7110739 8.71987712,98.6008131 7.49312107,98.4464456 C6.26636503,98.2920781 5.22198028,98.1211737 4.35993549,97.9337275 C3.21054244,97.5808875 2.36508812,97.1674093 1.82354716,96.6932805 C1.28200621,96.2191517 0.842701511,95.5961779 0.505619895,94.8243403 C0.16853828,94.0525028 0,93.2200333 0,92.326907 C0,91.0258094 0.339839482,89.7991574 1.01952864,88.6469142 C1.6992178,87.494671 2.70492163,86.5988016 4.03667031,85.959279 C5.36841899,85.3197565 6.81342752,85 8.37173925,85 C9.31114703,85 10.3361913,85.1240435 11.4469029,85.3721341 C12.5576144,85.6202247 13.5937104,85.981329 14.5552219,86.4554578 C14.4004959,87.1501116 14.289979,87.7978941 14.2236679,88.3988248 C14.1573567,88.9997555 14.1076241,89.8845988 14.0744686,91.0533814 L12.9471849,91.0533814 C12.9140293,89.3553388 12.8642967,88.4291476 12.7979856,88.2747801 C12.5216891,87.8778351 12.1459317,87.5194873 11.6707018,87.199726 C10.5323607,86.5602035 9.34430393,86.240447 8.10649603,86.240447 C6.50397687,86.240447 5.2247437,86.7283513 4.26875813,87.7041745 C3.31277257,88.6799977 2.83478695,89.945241 2.83478695,91.4999423 C2.83478695,92.4371736 3.00608816,93.1621388 3.3486957,93.6748594 C3.69130325,94.1875801 4.30467207,94.5983018 5.18882057,94.9070368 C5.79667266,95.1165355 6.7913248,95.3122486 8.17280684,95.4941817 C9.55428887,95.6761148 10.797604,95.8718278 11.9027897,96.0813266 C12.9416642,96.3900616 13.7097566,96.756679 14.2070902,97.1811896 C14.7044237,97.6057003 15.1133363,98.1625176 15.4338401,98.8516583 C15.7543439,99.5407989 15.9145934,100.34846 15.9145934,101.274665 C15.9145934,103.468889 15.002829,105.381914 13.1792727,107.0138 C11.3557164,108.645685 8.99618049,109.461615 6.10059415,109.461615 C3.91232661,109.461615 1.92854817,109.031598 0.149199313,108.17155 L0.149199313,108.17155 Z M50.97055,106.054521 L50.3240197,107.592675 C49.0309525,108.243224 47.7655339,108.714589 46.527726,109.006784 C45.2899181,109.29898 43.9416119,109.445076 42.4827669,109.445076 C40.7697291,109.445076 39.1782857,109.230067 37.7083888,108.800043 C36.2384919,108.370019 34.9537329,107.755315 33.8540732,106.955912 C32.7544135,106.156509 31.8564637,105.260639 31.1601967,104.268277 C30.4639298,103.275914 29.9334487,102.198114 29.5687374,101.034845 C29.2040261,99.8715755 29.0216732,98.5953062 29.0216732,97.2059986 C29.0216732,93.6886246 30.2511738,90.7749815 32.7102118,88.464982 C35.1692498,86.1549824 38.5262008,85 42.7811655,85 C43.7868844,85 44.7179893,85.0578869 45.5745082,85.1736626 C46.431027,85.2894382 47.4754118,85.5099599 48.7076938,85.8352343 C49.9399757,86.1605087 50.6942536,86.3507087 50.97055,86.4058399 C50.7274092,87.0122837 50.5450563,87.6076923 50.4234859,88.1920836 C50.2466562,89.129315 50.1250876,90.2153844 50.0587764,91.4503244 L49.0143812,91.4503244 L48.9978035,89.4986878 C48.887285,88.4181152 48.2877308,87.613211 47.1991229,87.083951 C46.1105151,86.5546909 44.5163087,86.2900649 42.4164561,86.2900649 C40.8470925,86.3121174 39.5153638,86.5133434 38.42123,86.8937491 C37.3270962,87.2741548 36.3628362,87.8750764 35.5284211,88.6965321 C34.6940059,89.5179878 34.011564,90.5599528 33.4810749,91.8224585 C32.9505858,93.0849643 32.6798194,94.669964 32.6687676,96.5775054 C32.6687676,99.9184594 33.6910489,102.606068 35.7356424,104.640411 C37.7802358,106.674754 40.4823741,107.691911 43.8421384,107.691911 C45.3562427,107.691911 46.7598074,107.482415 48.0528746,107.063417 C48.9370231,106.776735 49.8156325,106.324665 50.6887291,105.707195 L50.97055,106.054521 Z M63.4476772,108.981976 L63.4476772,107.857304 C64.3207738,107.846277 64.8650696,107.810443 65.0805808,107.749798 C65.296092,107.689154 65.4950224,107.57338 65.677378,107.402473 C65.8597337,107.231566 66.1222113,106.787766 66.4648189,106.07106 C66.6637523,105.663089 67.3821121,104.113924 68.61992,101.423518 L72.7643454,92.0953569 C73.2174715,91.0699156 74.1844944,88.7875159 75.6654432,85.2480894 L76.7429938,85.2480894 L83.8216723,101.837001 C84.9710654,104.527406 85.733632,106.214397 86.1093951,106.898025 C86.3193804,107.283943 86.548703,107.537543 86.7973697,107.658832 C87.0460365,107.780121 87.6069098,107.846277 88.4800064,107.857304 L88.4800064,108.981976 C86.7559169,108.871713 85.5512826,108.816583 84.8660675,108.816583 L79.5280476,108.981976 L79.5280476,107.857304 C80.7658555,107.835251 81.5173705,107.79666 81.782615,107.741528 C82.0478596,107.686397 82.2274496,107.606458 82.3213903,107.501709 C82.4153311,107.396959 82.4623008,107.267403 82.4623008,107.113035 C82.4623008,106.870458 82.384939,106.556214 82.230213,106.170296 L80.1911557,101.109272 L70.5926665,101.109272 L68.7856971,105.35987 C68.4651932,106.120682 68.3049437,106.677499 68.3049437,107.030339 C68.3049437,107.184706 68.3491505,107.311506 68.4375653,107.410743 C68.5591358,107.554084 68.7470145,107.653319 69.0012072,107.70845 C69.4101259,107.79666 70.1284857,107.846277 71.1563084,107.857304 L71.1563084,108.981976 C69.2885447,108.882739 67.8905058,108.833122 66.9621499,108.833122 C65.8901198,108.833122 64.7186407,108.882739 63.4476772,108.981976 L63.4476772,108.981976 Z M71.1563084,99.7034319 L79.5280476,99.7034319 L75.3836223,89.7302379 L71.1563084,99.7034319 Z M102.333083,108.981976 L102.333083,108.121932 C103.018298,107.802171 103.45484,107.548571 103.642721,107.361125 C103.75324,107.261888 103.830602,107.135089 103.874809,106.980721 C103.974276,106.671986 104.040586,106.010421 104.073741,104.996006 C104.117949,103.485409 104.140052,102.586783 104.140052,102.300101 L104.140052,93.4019611 C104.140052,91.902391 104.123475,90.4359216 104.090319,89.002509 C104.057164,87.9550152 103.977039,87.3347979 103.849943,87.1418385 C103.722846,86.9488791 103.51839,86.80554 103.236568,86.7118169 C102.954745,86.6180937 102.156261,86.5602068 100.84109,86.5381543 L100.84109,85.4796395 C103.537743,85.5678495 105.206548,85.6119539 105.847556,85.6119539 C106.554874,85.6119539 108.140792,85.5678495 110.605356,85.4796395 L110.605356,86.5381543 C109.290185,86.5602068 108.4917,86.6180937 108.209878,86.7118169 C107.928056,86.80554 107.731888,86.9350965 107.62137,87.1004903 C107.488747,87.3210153 107.40586,87.8557804 107.372704,88.7048017 C107.361652,88.9253267 107.339549,90.4910309 107.306393,93.4019611 L107.306393,104.516366 C107.306393,105.674123 107.328497,106.616853 107.372704,107.344585 C108.632616,107.421769 109.881457,107.460361 111.119265,107.460361 C114.235888,107.460361 116.418597,107.261891 117.667457,106.864946 C117.811131,106.534158 117.938225,106.153758 118.048744,105.723735 L118.711852,102.978212 L119.822558,102.978212 C119.579417,104.621123 119.341806,106.550688 119.109717,108.766965 C118.656591,108.855175 118.297411,108.910305 118.032166,108.932358 C117.45747,108.965436 116.573334,108.981976 115.379734,108.981976 L105.565735,108.849661 C104.504756,108.849661 103.427217,108.893765 102.333083,108.981976 L102.333083,108.981976 Z M133.095415,108.981976 L133.095415,107.94 C134.25586,107.928974 135.018426,107.840765 135.383138,107.675371 C135.537864,107.609214 135.64838,107.504466 135.714692,107.361125 C135.82521,107.1406 135.902572,106.56173 135.946779,105.624499 C136.013091,104.169034 136.046246,102.91206 136.046246,101.85354 L136.046246,93.4019611 C136.046246,91.902391 136.029668,90.4359216 135.996512,89.002509 C135.963357,87.9550152 135.883232,87.3347979 135.756136,87.1418385 C135.629039,86.9488791 135.424583,86.80554 135.142761,86.7118169 C134.860939,86.6180937 134.062454,86.5602068 132.747283,86.5381543 L132.747283,85.4796395 L137.471928,85.5788753 L142.478394,85.4961788 C144.876647,85.4631001 146.617288,85.4465609 147.70037,85.4465609 C148.794504,85.4465609 149.827837,85.5072044 150.8004,85.6284932 C150.62357,86.2569894 150.502002,86.8027807 150.43569,87.2658832 C150.413587,87.3651195 150.314122,88.5118323 150.137292,90.7060562 L149.092897,90.7060562 C149.103949,89.5813787 149.032113,88.5559527 148.877387,87.6297477 C148.269534,87.3761439 147.600907,87.2052396 146.871485,87.1170296 C145.633677,86.9626621 144.395887,86.8854795 143.15808,86.8854795 C142.892835,86.8854795 142.30157,86.9075316 141.384265,86.9516366 C140.466961,86.9957416 139.809386,87.0343329 139.411519,87.0674117 C139.367312,88.2913255 139.334156,89.4380384 139.312053,90.5075847 L139.245742,96.0978659 C140.538809,96.1640234 141.726866,96.1971017 142.809948,96.1971017 C144.125119,96.1971017 145.246865,96.1364582 146.175221,96.0151694 C146.528881,95.9710644 146.75544,95.8828558 146.854907,95.7505407 C146.954374,95.6182257 147.042787,95.1661562 147.12015,94.3943187 L147.219616,93.2365681 L148.214278,93.2365681 L148.214278,93.5508147 L148.13139,96.9909878 L148.214278,100.844643 L147.053839,100.844643 L147.004106,99.7199712 C146.982003,98.9040286 146.907404,98.3968287 146.780307,98.1983562 C146.653211,97.9998837 146.412837,97.8620576 146.059177,97.7848738 C145.429221,97.6525588 144.20801,97.5864023 142.395505,97.5864023 C141.655031,97.5864023 140.60512,97.6139675 139.245742,97.6690988 C139.190483,98.7717239 139.162853,100.409098 139.162853,102.581269 C139.162853,104.621125 139.190483,106.17029 139.245742,107.22881 C140.837209,107.350099 142.622057,107.410743 144.60034,107.410743 C146.003925,107.410743 147.004103,107.366638 147.600904,107.278428 C148.197704,107.190218 148.750288,107.041366 149.258674,106.831867 C149.391296,106.490054 149.523916,106.026958 149.656539,105.442567 C149.899679,104.46123 150.059929,103.722483 150.137292,103.226301 L151.23142,103.226301 C150.944072,105.453604 150.8004,107.300473 150.8004,108.766965 C149.84994,108.910306 148.695039,108.981976 147.33566,108.981976 L137.438773,108.849661 C137.295098,108.849661 135.847327,108.893765 133.095415,108.981976 L133.095415,108.981976 Z M164.12299,108.981976 L164.12299,107.890382 C164.89662,107.890382 165.40776,107.838008 165.656427,107.733259 C165.905094,107.628509 166.211778,107.361127 166.57649,106.931103 C166.941201,106.501079 167.770078,105.381932 169.063145,103.573627 L173.588857,97.3217736 L170.654604,92.3434463 C170.400412,91.9244488 169.894797,91.1719184 169.137745,90.0858327 C168.380692,88.999747 167.714828,88.1755472 167.140132,87.6132084 C166.896991,87.3926833 166.673194,87.2493442 166.468735,87.1831867 C166.264275,87.1170292 165.642618,87.083951 164.603743,87.083951 L164.603743,86.124672 L169.444432,85.3307859 C169.864403,85.6174684 170.256738,85.9923553 170.621449,86.4554578 C171.140886,87.1170329 171.870298,88.2582327 172.809705,89.8790916 L175.594759,94.692026 C178.987679,89.8845806 180.739372,87.2548593 180.849891,86.802783 L180.849891,85.4796395 C182.043491,85.5237445 182.861316,85.5457967 183.30339,85.5457967 C183.745465,85.5457967 184.414092,85.5237445 185.309292,85.4796395 L185.309292,86.4885364 C184.613025,86.5216152 184.176484,86.562963 183.999654,86.6125811 C183.822824,86.6621992 183.662575,86.7311123 183.518901,86.8193223 C183.319967,86.9516373 183.027097,87.2438286 182.640282,87.6959048 C182.253467,88.1479811 181.540633,89.0741723 180.501759,90.4745061 C179.462884,91.87484 178.506913,93.170405 177.633817,94.3612401 L176.390489,96.0151694 L182.01033,105.078702 C182.739752,106.258511 183.281285,107.041363 183.634945,107.427282 C183.800722,107.614728 183.983075,107.736015 184.182009,107.791146 C184.380942,107.846278 184.845113,107.879356 185.574536,107.890382 L185.574536,108.981976 C184.369883,108.937871 183.557584,108.915818 183.137613,108.915818 C182.673436,108.915818 181.850085,108.937871 180.667536,108.981976 C180.004425,107.989613 179.391056,107.013804 178.827411,106.054521 L174.467476,98.6283778 L172.362107,101.605451 C170.284359,104.692801 169.029992,106.754679 168.598969,107.791146 L168.565814,108.981976 C167.416421,108.937871 166.642802,108.915818 166.244936,108.915818 C165.979691,108.915818 165.272383,108.937871 164.12299,108.981976 L164.12299,108.981976 Z" id="SCALEX"></path>
                <path d="M2.06962635,138.81339 C2.15214687,138.319414 2.2011427,137.519288 2.2166153,136.412987 L2.74268103,136.412987 C2.76846869,137.164242 2.8110177,137.608042 2.87032933,137.7444 C2.92964096,137.880758 3.07276035,138.026119 3.2996918,138.180486 C3.52662325,138.334854 3.83091312,138.472496 4.21257056,138.593417 C4.59422799,138.714339 4.96298607,138.774798 5.31885584,138.774798 C5.83976666,138.774798 6.31941003,138.655165 6.75780033,138.415896 C7.19619063,138.176626 7.51595287,137.86275 7.71709665,137.474259 C7.91824044,137.085767 8.01881082,136.670267 8.01881082,136.227747 C8.01881082,135.888139 7.96852563,135.594845 7.86795374,135.347857 C7.76738185,135.100869 7.61394754,134.90148 7.40764623,134.749686 C7.20134491,134.597891 6.94605086,134.491122 6.64175642,134.429375 C6.4509277,134.398501 6.06927599,134.347046 5.49678983,134.275008 C4.92430368,134.20297 4.43692413,134.123214 4.03463656,134.035739 C3.49825314,133.871081 3.10370779,133.678124 2.85098868,133.456864 C2.59826956,133.235604 2.39326071,132.944883 2.23595595,132.584692 C2.0786512,132.224501 2,131.836016 2,131.419223 C2,130.812044 2.15859176,130.239607 2.47578003,129.701893 C2.79296831,129.16418 3.26229676,128.746107 3.88377948,128.447664 C4.5052622,128.14922 5.17959951,128 5.90681165,128 C6.34520195,128 6.82355595,128.057887 7.34188801,128.173663 C7.86022007,128.289438 8.34373153,128.457954 8.79243689,128.679214 C8.72023143,129.003385 8.66865687,129.305684 8.63771168,129.586118 C8.60676648,129.866553 8.58355793,130.279479 8.56808533,130.824911 L8.0420196,130.824911 C8.026547,130.032491 8.00333845,129.600269 7.97239326,129.528231 C7.84345493,129.34299 7.66810145,129.175761 7.44632753,129.026539 C6.91510164,128.728095 6.36067517,128.578875 5.78303148,128.578875 C5.03518921,128.578875 4.43821373,128.806564 3.99208713,129.261948 C3.54596053,129.717332 3.32290058,130.307779 3.32290058,131.033306 C3.32290058,131.470681 3.40284114,131.808998 3.56272466,132.048268 C3.72260818,132.287537 4.00884696,132.479207 4.4214496,132.623284 C4.70511391,132.72105 5.16928491,132.812383 5.81397652,132.897285 C6.45866814,132.982187 7.03888189,133.07352 7.55463518,133.171286 C8.03944327,133.315362 8.39788643,133.48645 8.62997542,133.684555 C8.8620644,133.88266 9.05289025,134.142508 9.20245871,134.464107 C9.35202716,134.785706 9.42681027,135.162615 9.42681027,135.594844 C9.42681027,136.618815 9.00132018,137.51156 8.15032725,138.273106 C7.29933432,139.034653 6.19821756,139.41542 4.84694394,139.41542 C3.82575242,139.41542 2.89998915,139.214746 2.06962635,138.81339 L2.06962635,138.81339 Z M28.7343066,128.903045 L28.7343066,128.432227 L30.5987454,128.069465 C30.8050467,128.141503 30.9468768,128.209681 31.0242398,128.274001 C31.1016028,128.338321 31.2640626,128.535136 31.5116242,128.864454 C31.877809,129.353284 32.3007204,130.019627 32.7803709,130.863503 C33.2600215,131.707379 33.7706096,132.672161 34.3121506,133.757879 C34.8588491,132.919149 35.418433,132.008395 35.9909191,131.025588 L37.6387427,128.223832 L38.8223906,128.223832 L38.8223906,128.432227 C38.5387262,128.746107 38.0178232,129.427887 37.2596659,130.477586 C36.8212756,131.084765 36.2513768,131.967219 35.5499523,133.124976 C35.111562,133.840212 34.8640041,134.278866 34.8072713,134.440952 C34.7505384,134.603038 34.7221724,134.756117 34.7221724,134.900193 L34.7221724,135.494505 C34.7221724,136.194305 34.7299086,136.876084 34.7453812,137.539864 C34.7608538,138.028695 34.7982453,138.319416 34.8575569,138.412037 C34.9168686,138.504657 35.0122815,138.572835 35.1437986,138.616572 C35.2753157,138.66031 35.6479418,138.687324 36.2616883,138.697615 L36.2616883,139.191589 C35.4210104,139.150424 34.6938092,139.129842 34.0800627,139.129842 C33.492104,139.129842 32.7159069,139.150424 31.7514483,139.191589 L31.7514483,138.697615 C32.3600372,138.687324 32.731374,138.66031 32.8654698,138.616572 C32.9995657,138.572835 33.0898211,138.512375 33.1362389,138.435192 C33.2032869,138.33228 33.2445465,138.082723 33.2600191,137.686513 C33.2651766,137.578456 33.2754916,136.847794 33.2909642,135.494505 L33.2909642,134.59146 C33.182656,134.359908 33.0769281,134.151515 32.9737775,133.966274 C32.901572,133.837635 32.6385418,133.395121 32.1846789,132.638721 L31.6740857,131.80514 C31.2717981,131.146505 30.9726657,130.678264 30.7766794,130.400403 C30.4001795,129.865262 30.0881535,129.481922 29.8405919,129.250371 C29.706496,129.121731 29.5659554,129.031685 29.4189657,128.980229 C29.271976,128.928773 29.0437586,128.903045 28.7343066,128.903045 L28.7343066,128.903045 Z M58.3000846,138.81339 C58.3826052,138.319414 58.431601,137.519288 58.4470736,136.412987 L58.9731393,136.412987 C58.998927,137.164242 59.041476,137.608042 59.1007876,137.7444 C59.1600992,137.880758 59.3032186,138.026119 59.5301501,138.180486 C59.7570815,138.334854 60.0613714,138.472496 60.4430288,138.593417 C60.8246863,138.714339 61.1934443,138.774798 61.5493141,138.774798 C62.0702249,138.774798 62.5498683,138.655165 62.9882586,138.415896 C63.4266489,138.176626 63.7464111,137.86275 63.9475549,137.474259 C64.1486987,137.085767 64.2492691,136.670267 64.2492691,136.227747 C64.2492691,135.888139 64.1989839,135.594845 64.098412,135.347857 C63.9978401,135.100869 63.8444058,134.90148 63.6381045,134.749686 C63.4318032,134.597891 63.1765091,134.491122 62.8722147,134.429375 C62.681386,134.398501 62.2997343,134.347046 61.7272481,134.275008 C61.154762,134.20297 60.6673824,134.123214 60.2650948,134.035739 C59.7287114,133.871081 59.3341661,133.678124 59.081447,133.456864 C58.8287278,133.235604 58.623719,132.944883 58.4664142,132.584692 C58.3091095,132.224501 58.2304583,131.836016 58.2304583,131.419223 C58.2304583,130.812044 58.38905,130.239607 58.7062383,129.701893 C59.0234266,129.16418 59.492755,128.746107 60.1142378,128.447664 C60.7357205,128.14922 61.4100578,128 62.1372699,128 C62.5756602,128 63.0540142,128.057887 63.5723463,128.173663 C64.0906783,128.289438 64.5741898,128.457954 65.0228952,128.679214 C64.9506897,129.003385 64.8991152,129.305684 64.86817,129.586118 C64.8372248,129.866553 64.8140162,130.279479 64.7985436,130.824911 L64.2724779,130.824911 C64.2570053,130.032491 64.2337967,129.600269 64.2028515,129.528231 C64.0739132,129.34299 63.8985597,129.175761 63.6767858,129.026539 C63.1455599,128.728095 62.5911334,128.578875 62.0134898,128.578875 C61.2656475,128.578875 60.668672,128.806564 60.2225454,129.261948 C59.7764188,129.717332 59.5533589,130.307779 59.5533589,131.033306 C59.5533589,131.470681 59.6332994,131.808998 59.7931829,132.048268 C59.9530665,132.287537 60.2393052,132.479207 60.6519079,132.623284 C60.9355722,132.72105 61.3997432,132.812383 62.0444348,132.897285 C62.6891264,132.982187 63.2693402,133.07352 63.7850935,133.171286 C64.2699016,133.315362 64.6283447,133.48645 64.8604337,133.684555 C65.0925227,133.88266 65.2833485,134.142508 65.432917,134.464107 C65.5824854,134.785706 65.6572685,135.162615 65.6572685,135.594844 C65.6572685,136.618815 65.2317785,137.51156 64.3807855,138.273106 C63.5297926,139.034653 62.4286758,139.41542 61.0774022,139.41542 C60.0562107,139.41542 59.1304474,139.214746 58.3000846,138.81339 L58.3000846,138.81339 Z M85.6765009,130.778601 L85.1968527,130.778601 C85.1916952,129.548807 85.1659079,128.697225 85.1194901,128.223832 C85.6816612,128.244414 86.5635861,128.270142 87.7652913,128.301015 C88.740065,128.321597 89.3899044,128.331888 89.7148289,128.331888 C90.0655412,128.331888 90.8778404,128.316452 92.1517511,128.285578 C93.0749495,128.264996 93.7479974,128.244414 94.1709151,128.223832 C94.1090247,128.800137 94.0677651,129.651718 94.0471349,130.778601 L93.5520143,130.778601 L93.4901242,130.037641 C93.4488639,129.589975 93.4204979,129.335273 93.4050253,129.273526 C93.3895527,129.211779 93.3676335,129.168042 93.3392671,129.142314 C93.3109007,129.116586 93.2683516,129.096004 93.2116188,129.080567 C93.1394133,129.06513 92.8815405,129.044548 92.4379927,129.01882 C91.9944449,128.993093 91.6437379,128.980229 91.3858613,128.980229 L90.4420375,128.980229 C90.3904621,129.474205 90.3646748,130.140548 90.3646748,130.979278 L90.3646748,135.494505 C90.3646748,136.194305 90.372411,136.876084 90.3878836,137.539864 C90.4033562,138.028695 90.4407478,138.319416 90.5000594,138.412037 C90.559371,138.504657 90.654784,138.572835 90.7863011,138.616572 C90.9178181,138.66031 91.2904443,138.687324 91.9041907,138.697615 L91.9041907,139.191589 C90.9809923,139.150424 90.2873146,139.129842 89.8231366,139.129842 C89.6219928,139.129842 88.8174297,139.150424 87.4094233,139.191589 L87.4094233,138.697615 C88.0231697,138.687324 88.3970852,138.66031 88.5311811,138.616572 C88.6652769,138.572835 88.7555324,138.512375 88.8019502,138.435192 C88.8689981,138.33228 88.9102578,138.082723 88.9257304,137.686513 C88.9257304,137.578456 88.9360453,136.847794 88.9566754,135.494505 L88.9566754,130.994715 C88.9566754,130.7786 88.9515179,130.541907 88.9412029,130.284628 L88.8947853,128.980229 L87.7420825,128.980229 C87.0767607,128.980229 86.5481215,129.005956 86.156149,129.057412 C86.0323682,129.072849 85.9524277,129.106295 85.9163249,129.157751 C85.8595921,129.245225 85.8080175,129.525656 85.7615997,129.999049 L85.6765009,130.778601 Z M113.718236,139.191589 L113.718236,138.705333 C114.259776,138.700188 114.615641,138.659024 114.78584,138.58184 C114.858045,138.550966 114.90962,138.502084 114.940565,138.435192 C114.99214,138.33228 115.028242,138.062141 115.048872,137.624766 C115.079818,136.945549 115.09529,136.358961 115.09529,135.864985 L115.09529,131.920915 C115.09529,131.221116 115.087554,130.536763 115.072081,129.867838 C115.056609,129.379007 115.019217,129.089572 114.959905,128.999525 C114.900594,128.909477 114.805181,128.842585 114.673664,128.798848 C114.542147,128.75511 114.16952,128.728097 113.555774,128.717805 L113.555774,128.223832 L115.760608,128.270142 L118.096959,128.23155 C119.216144,128.216113 120.028443,128.208395 120.533881,128.208395 C121.044477,128.208395 121.526699,128.236695 121.980562,128.293297 C121.898041,128.586595 121.841309,128.841298 121.810364,129.057412 C121.800049,129.103722 121.753632,129.638855 121.671112,130.662826 L121.183727,130.662826 C121.188885,130.137977 121.155361,129.659445 121.083156,129.227216 C120.799491,129.108867 120.487465,129.029112 120.147068,128.987947 C119.569424,128.915909 118.991789,128.87989 118.414146,128.87989 C118.290365,128.87989 118.014441,128.890181 117.586366,128.910764 C117.158291,128.931346 116.851422,128.949355 116.665751,128.964792 C116.645121,129.535952 116.629648,130.071085 116.619333,130.570206 L116.588388,133.179004 C117.19182,133.209878 117.746246,133.225314 118.251684,133.225314 C118.865431,133.225314 119.388912,133.197014 119.822145,133.140412 C119.987186,133.11983 120.092914,133.078666 120.139332,133.016919 C120.18575,132.955172 120.227009,132.744206 120.263112,132.384015 L120.30953,131.843732 L120.773705,131.843732 L120.773705,131.99038 L120.735024,133.595794 L120.773705,135.394167 L120.232167,135.394167 L120.208958,134.86932 C120.198643,134.488547 120.16383,134.251853 120.104519,134.159233 C120.045207,134.066612 119.933032,134.002294 119.767991,133.966274 C119.474012,133.904527 118.904113,133.873654 118.058278,133.873654 C117.712723,133.873654 117.222765,133.886518 116.588388,133.912246 C116.562601,134.426804 116.549707,135.190912 116.549707,136.204592 C116.549707,137.156525 116.562601,137.879469 116.588388,138.373445 C117.331073,138.430046 118.164002,138.458347 119.0872,138.458347 C119.742207,138.458347 120.208957,138.437765 120.487464,138.3966 C120.76597,138.355435 121.023843,138.285971 121.26109,138.188205 C121.32298,138.028692 121.38487,137.81258 121.44676,137.539864 C121.560226,137.081908 121.635009,136.737159 121.671112,136.505607 L122.181705,136.505607 C122.047609,137.545015 121.980562,138.406888 121.980562,139.09125 C121.537014,139.158143 120.99806,139.191589 120.363683,139.191589 L115.745136,139.129842 C115.678088,139.129842 115.002461,139.150424 113.718236,139.191589 L113.718236,139.191589 Z M141.814124,128.717805 L141.814124,128.223832 C142.355665,128.244414 142.873989,128.254705 143.369112,128.254705 C143.869393,128.254705 144.349036,128.244414 144.808057,128.223832 C145.26192,129.252949 145.677095,130.155985 146.053595,130.932968 L148.985638,136.953271 L151.631439,131.43466 C152.353493,129.93215 152.835716,128.861884 153.07812,128.223832 C153.624818,128.244414 154.08641,128.254705 154.46291,128.254705 C154.808465,128.254705 155.368049,128.244414 156.141679,128.223832 L156.141679,128.717805 C155.527932,128.728097 155.155306,128.75511 155.023789,128.798848 C154.892272,128.842585 154.800727,128.903045 154.749152,128.980229 C154.682104,129.08314 154.643423,129.332698 154.633108,129.728907 C154.62795,129.831819 154.615057,130.562481 154.594427,131.920915 L154.594427,135.494505 C154.594427,136.194305 154.604742,136.876084 154.625372,137.539864 C154.640844,138.028695 154.678236,138.319416 154.737548,138.412037 C154.796859,138.504657 154.892272,138.572835 155.023789,138.616572 C155.155306,138.66031 155.527932,138.687324 156.141679,138.697615 L156.141679,139.191589 C155.099857,139.145278 154.36492,139.122124 153.936845,139.122124 C153.59129,139.122124 152.827986,139.145278 151.646911,139.191589 L151.646911,138.697615 C152.260658,138.687324 152.634573,138.66031 152.768669,138.616572 C152.902765,138.572835 152.99302,138.512375 153.039438,138.435192 C153.106486,138.33228 153.145167,138.082723 153.155482,137.686513 C153.16064,137.578456 153.173533,136.847794 153.194163,135.494505 L153.194163,129.829246 L150.525154,135.401885 C150.107393,136.271489 149.779895,136.971278 149.542648,137.501273 C149.37245,137.887192 149.114577,138.499507 148.769022,139.338237 L148.467308,139.338237 C148.40026,139.142705 148.338371,138.985767 148.281638,138.867418 L147.755572,137.74826 L144.05764,130.083951 L144.05764,135.494505 C144.05764,136.194305 144.067955,136.876084 144.088585,137.539864 C144.104057,138.028695 144.141449,138.319416 144.20076,138.412037 C144.260072,138.504657 144.355485,138.572835 144.487002,138.616572 C144.618519,138.66031 144.991145,138.687324 145.604892,138.697615 L145.604892,139.191589 L143.740453,139.129842 L141.814124,139.191589 L141.814124,138.697615 C142.422713,138.687324 142.79405,138.66031 142.928146,138.616572 C143.062241,138.572835 143.155076,138.512375 143.206651,138.435192 C143.268541,138.33228 143.307222,138.082723 143.322695,137.686513 C143.327852,137.578456 143.338167,136.847794 143.35364,135.494505 L143.35364,131.920915 C143.35364,131.221116 143.345904,130.536763 143.330431,129.867838 C143.314959,129.379007 143.277567,129.089572 143.218255,128.999525 C143.158944,128.909477 143.063531,128.842585 142.932014,128.798848 C142.800497,128.75511 142.42787,128.728097 141.814124,128.717805 L141.814124,128.717805 Z M175.681263,138.81339 C175.763784,138.319414 175.812779,137.519288 175.828252,136.412987 L176.354318,136.412987 C176.380105,137.164242 176.422654,137.608042 176.481966,137.7444 C176.541278,137.880758 176.684397,138.026119 176.911328,138.180486 C177.13826,138.334854 177.44255,138.472496 177.824207,138.593417 C178.205865,138.714339 178.574623,138.774798 178.930492,138.774798 C179.451403,138.774798 179.931047,138.655165 180.369437,138.415896 C180.807827,138.176626 181.12759,137.86275 181.328733,137.474259 C181.529877,137.085767 181.630447,136.670267 181.630447,136.227747 C181.630447,135.888139 181.580162,135.594845 181.47959,135.347857 C181.379018,135.100869 181.225584,134.90148 181.019283,134.749686 C180.812982,134.597891 180.557687,134.491122 180.253393,134.429375 C180.062564,134.398501 179.680913,134.347046 179.108426,134.275008 C178.53594,134.20297 178.048561,134.123214 177.646273,134.035739 C177.10989,133.871081 176.715344,133.678124 176.462625,133.456864 C176.209906,133.235604 176.004897,132.944883 175.847593,132.584692 C175.690288,132.224501 175.611637,131.836016 175.611637,131.419223 C175.611637,130.812044 175.770228,130.239607 176.087417,129.701893 C176.404605,129.16418 176.873933,128.746107 177.495416,128.447664 C178.116899,128.14922 178.791236,128 179.518448,128 C179.956839,128 180.435193,128.057887 180.953525,128.173663 C181.471857,128.289438 181.955368,128.457954 182.404074,128.679214 C182.331868,129.003385 182.280294,129.305684 182.249348,129.586118 C182.218403,129.866553 182.195195,130.279479 182.179722,130.824911 L181.653656,130.824911 C181.638184,130.032491 181.614975,129.600269 181.58403,129.528231 C181.455092,129.34299 181.279738,129.175761 181.057964,129.026539 C180.526738,128.728095 179.972312,128.578875 179.394668,128.578875 C178.646826,128.578875 178.04985,128.806564 177.603724,129.261948 C177.157597,129.717332 176.934537,130.307779 176.934537,131.033306 C176.934537,131.470681 177.014478,131.808998 177.174361,132.048268 C177.334245,132.287537 177.620484,132.479207 178.033086,132.623284 C178.316751,132.72105 178.780922,132.812383 179.425613,132.897285 C180.070305,132.982187 180.650519,133.07352 181.166272,133.171286 C181.65108,133.315362 182.009523,133.48645 182.241612,133.684555 C182.473701,133.88266 182.664527,134.142508 182.814095,134.464107 C182.963664,134.785706 183.038447,135.162615 183.038447,135.594844 C183.038447,136.618815 182.612957,137.51156 181.761964,138.273106 C180.910971,139.034653 179.809854,139.41542 178.458581,139.41542 C177.437389,139.41542 176.511626,139.214746 175.681263,138.81339 L175.681263,138.81339 Z" id="SYSTEMS"></path>
                <g id="Group-9" transform="translate(48.000000, 0.000000)">
                    <path d="M45.4932367,45.2949234 L45.4883713,45.2979498 L45.4883713,45.2918971 L1.25902612,17.780214 L1.259027,17.7802195 C0.430475013,12.5716566 0,7.22927126 0,1.78567625 C0,1.18922145 0.00516810592,0.593981735 0.0154616997,0 L45.4932367,39.8610581 L90.971011,0 C90.9813046,0.593981735 90.9864727,1.18922145 90.9864727,1.78567625 C90.9864727,7.22927126 90.5559977,12.5716566 89.7274458,17.7802195 L89.7274466,17.780214 L45.498102,45.2918971 L45.498102,45.2979498 L45.4932367,45.2949234 Z" id="Combined-Shape-Copy-6"></path>
                    <path d="M45.4322265,52.501312 L45.4188372,52.506679 L45.4188372,52.495945 L6.26912534,36.802944 L6.26912534,36.802944 C4.43777736,31.8883867 2.97828591,26.7908277 1.92514239,21.5449871 L45.4322265,48.3503285 L88.9393106,21.5449871 C87.8861671,26.7908277 86.4266757,31.8883867 84.5953277,36.802944 L84.5953277,36.802944 L45.4456158,52.495945 L45.4456158,52.506679 L45.4322265,52.501312 Z" id="Combined-Shape-Copy-5"></path>
                    <path d="M45.4711523,54.9296307 L83.241735,40.1825193 C81.7560353,43.7493076 80.0716044,47.2114534 78.2023846,50.5549219 L45.4888193,57.9543016 L45.4888193,57.9622937 L45.4711523,57.9582977 L45.4534852,57.9622937 L45.4534852,57.9543016 L12.7399199,50.5549219 C10.8707001,47.2114534 9.18626921,43.7493076 7.70056957,40.1825193 L45.4711523,54.9296307 Z" id="Combined-Shape-Copy-4"></path>
                </g>
            </g>
        </g>
    </g>
</svg>