<?xml version="1.0" encoding="UTF-8" standalone="no"?>
<svg width="936px" height="593px" viewBox="0 0 936 593" version="1.1" xmlns="http://www.w3.org/2000/svg" xmlns:xlink="http://www.w3.org/1999/xlink">
    <g id="Page-1" stroke="none" stroke-width="1" fill="none" fill-rule="evenodd">
        <g id="Artboard-10" transform="translate(-536.000000, -381.000000)" fill="#EABD8B">
            <g id="Group" transform="translate(536.333333, 381.000000)">
                <path d="M804.238631,516.492991 L469.600561,592.436529 L467.666667,561.215598 L856.029808,410.622951 C840.76075,447.02879 823.44926,482.366555 804.238631,516.492991 Z" id="Combined-Shape"></path>
                <path d="M922.33993,181.535284 C930.890506,128.265659 935.333333,73.6236463 935.333333,17.9442352 C935.333333,11.9506635 935.281853,5.96911253 935.17931,-1.50457424e-12 L467.666687,406.96349 L467.666667,462.413772 L922.339939,181.535227 Z" id="Combined-Shape"></path>
                <path d="M870.194707,375.307156 L467.666675,535.552732 L467.666667,493.213497 L914.923393,219.540984 C904.073858,273.097074 889.046026,325.137282 870.194707,375.307156 Z" id="Combined-Shape"></path>
                <path d="M417.905298,516.492991 L83.267228,592.436529 L81.3333333,561.215598 L469.696474,410.622951 C454.427416,447.02879 437.115927,482.366555 417.905298,516.492991 Z" id="Combined-Shape-Copy-3" transform="translate(275.514904, 501.529740) scale(-1, 1) translate(-275.514904, -501.529740) "></path>
                <path d="M454.673263,181.535284 C463.22384,128.265659 467.666667,73.6236463 467.666667,17.9442352 C467.666667,11.9506635 467.615186,5.96911253 467.512644,-1.44240175e-12 L2.00647851e-05,406.96349 L-1.70530257e-12,462.413772 L454.673273,181.535227 Z" id="Combined-Shape-Copy-2" transform="translate(233.833333, 231.206886) scale(-1, 1) translate(-233.833333, -231.206886) "></path>
                <path d="M422.861374,375.307156 L20.3333414,535.552732 L20.3333333,493.213497 L467.590059,219.540984 C456.740524,273.097074 441.712692,325.137282 422.861374,375.307156 Z" id="Combined-Shape-Copy" transform="translate(243.961696, 377.546858) scale(-1, 1) translate(-243.961696, -377.546858) "></path>
            </g>
        </g>
    </g>
</svg>