<?xml version="1.0" encoding="UTF-8" standalone="no"?>
<svg width="187px" height="95px" viewBox="0 0 187 95" version="1.1" xmlns="http://www.w3.org/2000/svg" xmlns:xlink="http://www.w3.org/1999/xlink">
    <g id="Page-1" stroke="none" stroke-width="1" fill="none" fill-rule="evenodd">
        <g id="Desktop-HD-Copy-2" transform="translate(-590.000000, -393.000000)">
            <g id="Group-8" transform="translate(590.000000, 393.000000)">
                <g id="Group-7" transform="translate(0.000000, 64.000000)">
                    <polygon id="Fill-11" fill="#AAAAAA" points="74.7295368 26.4421873 78.285721 26.4421873 78.285721 30.0584197 74.7295368 30.0584197"></polygon>
                    <g id="Group-6">
                        <path d="M89.5978762,30.2798968 C87.3219853,30.272255 85.2740928,29.6211285 83.5588714,28.0465663 C82.6177574,27.1829691 81.9186652,26.1408118 81.3955707,24.9707901 C81.3198843,24.8016459 81.3741664,24.7423534 81.5214462,24.681355 C82.4434373,24.2985803 83.3642877,23.9136221 84.2811123,23.5174058 C84.4595254,23.4405097 84.5184372,23.4974142 84.5899635,23.6565284 C85.1130581,24.8222516 85.8503289,25.8156239 86.9946151,26.4020676 C88.6984299,27.2750807 90.444248,27.350271 92.1509481,26.4244473 C93.2773191,25.8126217 93.6999683,24.6073929 93.2582633,23.5018492 C92.9696085,22.7788757 92.3888098,22.3658064 91.7092431,22.0840814 C90.7161955,21.6721721 89.6539028,21.5148319 88.6244881,21.2382924 C87.5367654,20.9459235 86.4207274,20.7528303 85.3941979,20.2517433 C84.2095189,19.6730779 83.1709118,18.919264 82.5144938,17.7263167 C81.5531163,15.9799494 81.8244599,13.7612885 83.1512521,12.2710596 C84.3013758,10.9797235 85.7677986,10.2855434 87.4131712,9.94991606 C89.3224396,9.5601135 91.2040637,9.67344486 93.0163086,10.4369475 C94.6646336,11.1311959 95.8897726,12.2924159 96.6472399,13.9501514 C96.7460079,14.1658289 96.7189003,14.255143 96.4942568,14.3458218 C95.6248033,14.6960505 94.7640054,15.0691365 93.8991146,15.4313056 C93.7888729,15.4771567 93.6837306,15.5769783 93.5879149,15.3720812 C92.9026449,13.9107822 91.6855576,13.2279966 90.1683418,13.0290356 C89.0621672,12.8839769 87.9773297,12.9784766 86.9536854,13.4795635 C86.6793895,13.6137053 86.4293831,13.784487 86.2088325,13.9982541 C85.2453079,14.9326066 85.3965464,16.3710484 86.528151,17.0828321 C87.2106029,17.5120038 87.983033,17.6620433 88.7445932,17.8528849 C90.0527993,18.1810068 91.3818729,18.4284799 92.668809,18.8388881 C94.0631017,19.2836165 95.2853555,20.0063171 96.147294,21.2500281 C97.4347669,23.1076117 97.3492843,25.7474613 95.9573401,27.5316967 C94.7581679,29.0692778 93.1381583,29.8254115 91.283172,30.146028 C90.7265956,30.2423017 90.1648527,30.2909502 89.5978762,30.2798968" id="Fill-1" fill="#C0C0C0"></path>
                        <path d="M28.816715,20.6652902 C26.4236043,20.6652902 24.0298897,20.6670642 21.636779,20.6618104 C21.4317952,20.6614693 21.3239019,20.6826208 21.3498016,20.9403285 C21.5247927,22.6766659 22.1021023,24.2212748 23.4132608,25.4072625 C24.7244863,26.592295 26.2694135,27.0631558 28.0100651,26.9058156 C29.1492518,26.8027871 30.1878589,26.4419826 31.0787166,25.6938319 C31.6624006,25.2032524 32.1046423,24.5976359 32.4124199,23.8987478 C32.517428,23.6598035 32.627133,23.6733132 32.8223205,23.7581241 C33.6813739,24.1312101 34.5404943,24.5042961 35.409411,24.8515909 C35.6714951,24.9560522 35.682432,25.0637887 35.5716535,25.2951593 C34.5624353,27.3983737 32.9955,28.9019758 30.821732,29.6581096 C27.9055938,30.6723604 25.0413893,30.476538 22.3670716,28.8678604 C19.8476157,27.3525908 18.4844565,24.9954214 17.9723659,22.1078257 C17.5924581,19.9689949 17.7506747,17.8637336 18.5565866,15.8435561 C19.867745,12.5545586 22.1650401,10.3923246 25.6799592,9.8598514 C28.4616334,9.43832152 31.04812,10.0294732 33.2235655,11.9648398 C34.5647166,13.1584012 35.3880068,14.6869075 35.8631265,16.4164218 C36.2141822,17.6952035 36.3452914,19.0020962 36.3146277,20.3292535 C36.3088573,20.6001298 36.2286754,20.672045 35.9665242,20.6708851 C33.5832768,20.6611963 31.1999624,20.6652902 28.816715,20.6652902 L28.816715,20.6652902 Z M27.01534,17.6767129 C28.7341176,17.6767129 30.4534321,17.6769859 32.1727465,17.6767129 C32.5509098,17.6767129 32.5549357,17.6749389 32.4908573,17.3094265 C32.3546487,16.5330283 32.0532453,15.8288864 31.6046293,15.1847877 C30.1486067,13.0937866 27.1873788,12.6320688 25.2163804,13.3395539 C23.2718186,14.0376233 22.1863772,15.538155 21.6171864,17.4873725 C21.5334483,17.7750335 21.7539989,17.6722779 21.8579334,17.6726191 C23.576644,17.6784869 25.2960255,17.6767129 27.01534,17.6767129 L27.01534,17.6767129 Z" id="Fill-2" fill="#424242"></path>
                        <path d="M118.156317,15.252882 C118.156317,10.3823629 118.159202,5.51150255 118.149406,0.640983393 C118.148198,0.318319942 118.214625,0.214472666 118.550651,0.222387438 C119.581139,0.247632834 120.612903,0.237944061 121.643458,0.22682244 C121.874409,0.224434362 121.960428,0.277245001 121.959287,0.532632883 C121.950632,3.57934277 121.964454,6.62639381 121.946539,9.67317193 C121.941372,10.5455709 121.852468,11.4170829 121.805164,12.2892772 C121.800467,12.378182 121.736388,12.5029079 121.869242,12.5420041 C121.972573,12.5725033 122.003773,12.4576709 122.052822,12.3899177 C123.87956,9.8580774 126.356945,8.82479017 129.397214,9.10740214 C131.073251,9.2630366 132.566311,9.85930555 133.777024,11.082752 C134.896417,12.2137458 135.497412,13.6177991 135.816127,15.1656831 C135.970855,15.9159489 136.052311,16.6768588 136.053989,17.4407026 C136.063852,21.6122655 136.058619,25.7841695 136.06553,29.9558005 C136.066134,30.1923567 136.010711,30.2818755 135.762449,30.2790098 C134.699016,30.2663189 133.635515,30.2643402 132.572619,30.2798968 C132.302416,30.2839907 132.260278,30.1776871 132.260278,29.93731 C132.266653,26.1258693 132.266049,22.3144286 132.263767,18.5033291 C132.263164,17.3288723 132.168489,16.169017 131.688135,15.0775971 C131.085328,13.708819 130.016729,12.9479092 128.595865,12.6846747 C127.366164,12.4565792 126.157732,12.5078887 125.024987,13.1331558 C123.690143,13.8702531 122.869134,15.0365222 122.363417,16.4560639 C122.075903,17.2630978 121.951168,18.1008356 121.952309,18.9614989 C121.956939,22.598064 121.948887,26.2347657 121.962709,29.8712626 C121.963917,30.2155552 121.864008,30.2869246 121.548246,30.2810568 C120.528561,30.2614063 119.507801,30.2639991 118.487646,30.2801015 C118.215229,30.2842636 118.150547,30.1991798 118.150547,29.930214 C118.158599,25.0379974 118.156317,20.1454397 118.156317,15.252882" id="Fill-3" fill="#C0C0C0"></path>
                        <path d="M98.5386602,19.9951273 C98.5565082,17.5220337 99.2020563,15.2560889 100.738932,13.3045515 C102.279296,11.3496027 104.297129,10.2208606 106.725399,9.85487055 C108.292334,9.61851906 109.841958,9.71042595 111.354008,10.2188819 C113.385059,10.9019404 114.909857,12.2211147 116.003954,14.0746043 C116.202563,14.4115963 116.370576,14.7652365 116.5351,15.1207872 C116.592804,15.2446943 116.569722,15.3018717 116.442773,15.3547506 C115.467641,15.7606556 114.493045,16.1692899 113.522475,16.58734 C113.367814,16.6542744 113.319303,16.6067175 113.259183,16.4687549 C112.822779,15.4703336 112.215409,14.6068046 111.314755,13.9847444 C110.162954,13.1900603 108.871992,12.9088811 107.516415,13.0818462 C105.153901,13.383017 103.594548,14.8078125 102.689197,16.9710018 C101.854366,18.9659339 101.861277,21.017907 102.682286,23.0189116 C103.506717,25.0274217 104.931002,26.4158502 107.075851,26.8503439 C109.311886,27.3035329 112.067593,26.4399357 113.368351,23.7278979 C113.547905,23.3535837 113.551394,23.3553577 113.930094,23.5191798 C114.789215,23.8910377 115.645987,24.2673988 116.507992,24.630796 C116.671979,24.6997774 116.70942,24.763232 116.630379,24.9316938 C115.259772,27.8701215 113.018503,29.6522417 109.846051,30.1480749 C107.670002,30.4880008 105.57078,30.1888769 103.615885,29.1201097 C101.217541,27.808509 99.7111946,25.7615851 98.9543312,23.1246011 C98.6616505,22.1045507 98.535775,21.0583678 98.5386602,19.9951273" id="Fill-4" fill="#C0C0C0"></path>
                        <path d="M39.8266616,20.2496964 C39.8266616,17.0182857 39.8260577,13.7872162 39.8271984,10.5558056 C39.8271984,10.1657301 39.7983463,10.2235216 40.1418871,10.2226346 C41.1395646,10.2205876 42.1377788,10.2282295 43.1353891,10.2167667 C43.3397691,10.2144469 43.3819736,10.2787203 43.3802291,10.4736557 C43.3703657,11.4026862 43.3738548,12.332058 43.3790884,13.2614979 C43.3796252,13.3389399 43.3115209,13.4651668 43.4506147,13.491231 C43.5672978,13.5129966 43.5678346,13.3926375 43.599035,13.3204493 C44.2133826,11.9108692 45.3102978,11.0137707 46.6422565,10.3743799 C48.2662921,9.59470651 49.9376987,9.56072758 51.6385612,10.074369 C51.6466801,10.0767571 51.6541279,10.079964 51.6622468,10.0825567 C52.0282654,10.2020971 52.0288692,10.20237 51.887427,10.5558056 C51.4977229,11.5336894 51.1050665,12.5102768 50.7211999,13.4901393 C50.6536324,13.661808 50.6051207,13.7252627 50.3857108,13.6714968 C48.3529153,13.1739578 46.5221514,13.5114956 45.0400948,15.1166933 C44.1671523,16.0627816 43.7254473,17.2149269 43.5776979,18.4936403 C43.518786,19.0032561 43.5303269,19.5145778 43.5303269,20.0256264 C43.529723,23.3509227 43.5274417,26.675946 43.5354934,30.0009693 C43.5360302,30.2246981 43.4859081,30.2836495 43.2618685,30.2810568 C42.2059502,30.2675471 41.1492938,30.266933 40.0927715,30.2812614 C39.8612841,30.2846048 39.8214951,30.2103014 39.8220318,29.9945556 C39.8284061,26.7464284 39.8266616,23.4980283 39.8266616,20.2496964" id="Fill-5" fill="#424242"></path>
                        <path d="M71.7827349,20.005976 C71.749253,22.4691761 71.1210833,24.7241358 69.6044042,26.6680312 C68.0386096,28.6744261 65.9774989,29.8204306 63.4943429,30.1697723 C61.3650607,30.4695102 59.3143502,30.1774824 57.4028005,29.1459692 C54.9305814,27.8116477 53.3798838,25.7119813 52.674887,22.9834316 C52.0126987,20.4187041 52.1414594,17.8760151 53.2279743,15.4460434 C54.6389743,12.2886632 57.0655668,10.4252118 60.4338101,9.87472571 C62.6185151,9.5178104 64.7269968,9.81727538 66.6888028,10.8834499 C69.2822676,12.2930299 70.8185392,14.5325012 71.4952207,17.4119092 C71.6961116,18.2676599 71.7688456,19.1394448 71.7827349,20.005976 L71.7827349,20.005976 Z M61.7565094,13.0430229 C59.6532612,13.1399789 57.8184714,14.2046522 56.7053187,16.3690014 C55.6043777,18.5100839 55.5610996,20.755696 56.4045862,22.9975554 C57.3842815,25.6015838 59.8287891,27.1756001 62.5445733,26.924579 C64.9642547,26.7009185 66.6691431,25.3747164 67.6120017,23.1231683 C68.4647478,21.0853872 68.4318028,18.9980024 67.6397131,16.9310185 C66.7522773,14.6164934 64.4902086,13.0474579 61.7565094,13.0430229 L61.7565094,13.0430229 Z" id="Fill-7" fill="#424242"></path>
                        <path d="M158.245988,20.005976 C158.212506,22.4691761 157.584403,24.7241358 156.067657,26.6680312 C154.50193,28.6744261 152.440819,29.8204306 149.957663,30.1697723 C147.828381,30.4695102 145.77767,30.1774824 143.866121,29.1459692 C141.393902,27.8116477 139.843137,25.7119813 139.138207,22.9834316 C138.476019,20.4187041 138.604712,17.8760151 139.691294,15.4457023 C141.102362,12.288322 143.528887,10.4248707 146.897197,9.87452102 C149.081835,9.51753748 151.190317,9.81693423 153.152056,10.8831087 C155.745588,12.2928252 157.281859,14.5321601 157.958474,17.4119092 C158.159432,18.2676599 158.232166,19.1394448 158.245988,20.005976 L158.245988,20.005976 Z M148.21983,13.04275 C146.116581,13.1396377 144.281792,14.2043111 143.168639,16.3690014 C142.067631,18.5100839 142.024353,20.755696 142.867839,22.9975554 C143.847602,25.6015838 146.292109,27.1756001 149.00796,26.924579 C151.427575,26.7009185 153.132463,25.3747164 154.075255,23.1231683 C154.928001,21.0853872 154.895123,18.9980024 154.102966,16.9310185 C153.215665,14.6161522 150.953596,13.047185 148.21983,13.04275 L148.21983,13.04275 Z" id="Fill-6" fill="#C0C0C0"></path>
                        <path d="M179.824914,20.005976 C179.791432,22.4691761 179.163263,24.7241358 177.646583,26.6680312 C176.080789,28.6744261 174.019678,29.8204306 171.536522,30.1697723 C169.407307,30.4695102 167.356597,30.1774824 165.444913,29.1459692 C162.972761,27.8116477 161.421996,25.7119813 160.717066,22.9834316 C160.054811,20.4187041 160.183572,17.8760151 161.270221,15.4457023 C162.681221,12.288322 165.107813,10.4248707 168.475989,9.87452102 C170.660694,9.51753748 172.769176,9.81693423 174.730982,10.8831087 C177.32438,12.2928252 178.860786,14.5321601 179.5374,17.4119092 C179.738291,18.2676599 179.811092,19.1394448 179.824914,20.005976 L179.824914,20.005976 Z M169.798689,13.04275 C167.69544,13.1396377 165.860651,14.2043111 164.747565,16.3690014 C163.646557,18.5100839 163.603212,20.755696 164.446698,22.9975554 C165.426461,25.6015838 167.870968,27.1756001 170.58682,26.924579 C173.006501,26.7009185 174.711389,25.3747164 175.654181,23.1231683 C176.506927,21.0853872 176.473982,18.9980024 175.681892,16.9310185 C174.794457,14.6161522 172.532455,13.047185 169.798689,13.04275 L169.798689,13.04275 Z" id="Fill-8" fill="#C0C0C0"></path>
                        <path d="M182.554587,15.2525409 C182.554587,10.3412879 182.556936,5.42989851 182.548817,0.518577339 C182.54828,0.274925154 182.61464,0.220340514 182.84445,0.223206208 C183.91882,0.235555983 184.993325,0.23705706 186.067158,0.222387438 C186.31079,0.21911236 186.377217,0.272537076 186.377217,0.530858883 C186.369098,8.02048551 186.370843,15.509771 186.370843,22.9989882 C186.370843,25.3324133 186.366817,27.6658384 186.376613,29.9989224 C186.377821,30.2352057 186.31542,30.2839907 186.093729,30.2812614 C185.01124,30.2689799 183.92808,30.2689799 182.845054,30.2810568 C182.616921,30.2836495 182.54828,30.2317941 182.548817,29.9866409 C182.556936,25.0752514 182.554587,20.1639303 182.554587,15.2525409" id="Fill-9" fill="#C0C0C0"></path>
                        <polyline id="Fill-10" fill="#424242" points="16.086045 9.58917982 0.3851559 9.58917982 0.3851559 13.2054122 11.4218074 13.2054122 0.116764633 26.5274076 0.116764633 30.3313429 16.086045 30.3313429 16.086045 26.7151105 4.57333452 26.7151105 16.086045 13.2838094 16.086045 9.58917982"></polyline>
                    </g>
                </g>
                <g id="Group-5" transform="translate(68.000000, 0.000000)">
                    <path d="M39.4313459,29.9017573 C39.4313459,40.813119 30.7328043,49.6584198 20.0026274,49.6584198 C9.27233223,49.6584198 0.575210347,40.813119 0.575210347,29.9017573 C0.575210347,18.9914783 9.27233223,10.1460572 20.0026274,10.1460572 C30.7328043,10.1460572 39.4313459,18.9914783 39.4313459,29.9017573" id="Fill-12" fill="#FFBE03"></path>
                    <path d="M49.3318565,7.57581195 C49.3318565,11.7164752 46.0296357,15.0733731 41.957847,15.0733731 C37.8859401,15.0733731 34.5858488,11.7164752 34.5858488,7.57581195 C34.5858488,3.43478777 37.8859401,0.0783710982 41.957847,0.0783710982 C46.0296357,0.0783710982 49.3318565,3.43478777 49.3318565,7.57581195" id="Fill-13" fill="#424242"></path>
                </g>
            </g>
        </g>
    </g>
</svg>