<?xml version="1.0" encoding="UTF-8" standalone="no"?>
<svg width="158px" height="20px" viewBox="0 0 158 20" version="1.1" xmlns="http://www.w3.org/2000/svg" xmlns:xlink="http://www.w3.org/1999/xlink">
    <!-- Generator: Sketch 3.8.3 (29802) - http://www.bohemiancoding.com/sketch -->
    <title>Group 10 Copy</title>
    <desc>Created with Sketch.</desc>
    <defs></defs>
    <g id="Page-1" stroke="none" stroke-width="1" fill="none" fill-rule="evenodd">
        <g id="Desktop-HD-Copy-5" transform="translate(-723.000000, -738.000000)">
            <g id="Group-10-Copy" transform="translate(723.135468, 731.333333)">
                <g id="Group-8" transform="translate(0.000000, 7.777778)">
                    <path d="M14.3475084,10.7497741 C14.3475084,14.6182513 11.1429748,17.7542342 7.18998889,17.7542342 C3.23695939,17.7542342 0.0329488131,14.6182513 0.0329488131,10.7497741 C0.0329488131,6.88168081 3.23695939,3.74565522 7.18998889,3.74565522 C11.1429748,3.74565522 14.3475084,6.88168081 14.3475084,10.7497741" id="Fill-12" fill="#F6A623"></path>
                    <path d="M17.9948461,2.83440919 C17.9948461,4.3024259 16.7783114,5.49256909 15.2782688,5.49256909 C13.7781825,5.49256909 12.5624323,4.3024259 12.5624323,2.83440919 C12.5624323,1.36626453 13.7781825,0.176291944 15.2782688,0.176291944 C16.7783114,0.176291944 17.9948461,1.36626453 17.9948461,2.83440919" id="Fill-13" fill="#000000"></path>
                </g>
                <text id="zero.school" font-family="ProductSans-Regular, Product Sans" font-size="26.4000006" font-weight="normal">
                    <tspan x="27.6629424" y="25" fill="#4A4A4A">zero</tspan>
                    <tspan x="78.3245435" y="25" fill="#9B9B9B">.school</tspan>
                </text>
            </g>
        </g>
    </g>
</svg>