<?xml version="1.0" encoding="UTF-8" standalone="no"?>
<svg width="187px" height="138px" viewBox="0 0 187 138" version="1.1" xmlns="http://www.w3.org/2000/svg" xmlns:xlink="http://www.w3.org/1999/xlink">
    <g id="Page-1" stroke="none" stroke-width="1" fill="none" fill-rule="evenodd">
        <g id="Desktop-HD" transform="translate(-590.000000, -84.000000)">
            <g id="Group" transform="translate(590.000000, 84.000000)">
                <path d="M123.780145,49.6142875 L91.5910268,56.9094195 L91.4050039,53.9103386 L128.761982,39.4444175 C127.293238,42.9415603 125.628031,46.336104 123.780145,49.6142875 Z" id="Combined-Shape" fill="#EABD8B"></path>
                <path d="M135.140408,17.4382691 C135.962895,12.3211919 136.390255,7.07228331 136.390255,1.72372222 C136.390255,1.14798006 136.385303,0.573392612 136.375439,-2.73114864e-14 L91.4050058,39.0928899 L91.4050039,44.4194409 L135.140409,17.4382637 Z" id="Combined-Shape" fill="#EABD8B"></path>
                <path d="M130.124515,36.0519842 L91.4050046,51.4451651 L91.4050039,47.3780606 L134.427005,21.0890945 C133.383379,26.2336895 131.937839,31.232669 130.124515,36.0519842 Z" id="Combined-Shape" fill="#EABD8B"></path>
                <path d="M86.6184158,49.6142875 L54.4292979,56.9094195 L54.243275,53.9103386 L91.6002528,39.4444175 C90.1315092,42.9415603 88.4663024,46.336104 86.6184158,49.6142875 Z" id="Combined-Shape-Copy-3" fill="#EABD8B" transform="translate(72.921764, 48.176918) scale(-1, 1) translate(-72.921764, -48.176918) "></path>
                <path d="M90.1551574,17.4382691 C90.9776446,12.3211919 91.4050039,7.07228331 91.4050039,1.72372222 C91.4050039,1.14798006 91.4000519,0.573392612 91.3901882,3.34843264e-13 L46.419755,39.0928899 L46.4197531,44.4194409 L90.1551583,17.4382637 Z" id="Combined-Shape-Copy-2" fill="#EABD8B" transform="translate(68.912378, 22.209720) scale(-1, 1) translate(-68.912378, -22.209720) "></path>
                <path d="M87.095145,36.0519842 L48.3756343,51.4451651 L48.3756336,47.3780606 L91.3976349,21.0890945 C90.354009,26.2336895 88.9084692,31.232669 87.095145,36.0519842 Z" id="Combined-Shape-Copy" fill="#EABD8B" transform="translate(69.886634, 36.267130) scale(-1, 1) translate(-69.886634, -36.267130) "></path>
                <path d="M0.91244183,106.57155 C1.08927153,105.51303 1.19426259,103.798474 1.22741816,101.42783 L2.35470186,101.42783 C2.40996114,103.037662 2.50113759,103.988662 2.62823393,104.280858 C2.75533028,104.573054 3.06201469,104.884541 3.54829637,105.215328 C4.03457804,105.546116 4.68662778,105.841063 5.50446514,106.10018 C6.32230251,106.359297 7.11249838,106.488854 7.87507646,106.488854 C8.99131394,106.488854 10.0191212,106.232497 10.9585289,105.719777 C11.8979367,105.207056 12.5831415,104.534465 13.0141639,103.701983 C13.4451863,102.869501 13.6606943,101.979144 13.6606943,101.030887 C13.6606943,100.303154 13.5529403,99.6746674 13.3374291,99.1454074 C13.1219179,98.6161473 12.7931301,98.1888865 12.3510559,97.8636121 C11.9089816,97.5383377 11.3619229,97.3095465 10.7098634,97.1772314 C10.3009447,97.1110739 9.48311963,97.0008131 8.25636359,96.8464456 C7.02960755,96.6920781 5.9852228,96.5211737 5.12317801,96.3337275 C3.97378496,95.9808875 3.12833064,95.5674093 2.58678968,95.0932805 C2.04524872,94.6191517 1.60594403,93.9961779 1.26886241,93.2243403 C0.931780797,92.4525028 0.763242517,91.6200333 0.763242517,90.726907 C0.763242517,89.4258094 1.103082,88.1991574 1.78277116,87.0469142 C2.46246032,85.894671 3.46816415,84.9988016 4.79991283,84.359279 C6.13166151,83.7197565 7.57667004,83.4 9.13498177,83.4 C10.0743896,83.4 11.0994338,83.5240435 12.2101454,83.7721341 C13.3208569,84.0202247 14.3569529,84.381329 15.3184644,84.8554578 C15.1637384,85.5501116 15.0532215,86.1978941 14.9869104,86.7988248 C14.9205993,87.3997555 14.8708667,88.2845988 14.8377111,89.4533814 L13.7104274,89.4533814 C13.6772718,87.7553388 13.6275392,86.8291476 13.5612281,86.6747801 C13.2849317,86.2778351 12.9091742,85.9194873 12.4339444,85.599726 C11.2956032,84.9602035 10.1075464,84.640447 8.86973855,84.640447 C7.26721939,84.640447 5.98798622,85.1283513 5.03200065,86.1041745 C4.07601509,87.0799977 3.59802947,88.345241 3.59802947,89.8999423 C3.59802947,90.8371736 3.76933067,91.5621388 4.11193822,92.0748594 C4.45454576,92.5875801 5.06791458,92.9983018 5.95206308,93.3070368 C6.55991518,93.5165355 7.55456732,93.7122486 8.93604935,93.8941817 C10.3175314,94.0761148 11.5608466,94.2718278 12.6660322,94.4813266 C13.7049067,94.7900616 14.4729992,95.156679 14.9703327,95.5811896 C15.4676662,96.0057003 15.8765788,96.5625176 16.1970826,97.2516583 C16.5175864,97.9407989 16.6778359,98.7484597 16.6778359,99.6746648 C16.6778359,101.868889 15.7660715,103.781914 13.9425152,105.4138 C12.1189589,107.045685 9.759423,107.861615 6.86383667,107.861615 C4.67556913,107.861615 2.69179069,107.431598 0.91244183,106.57155 L0.91244183,106.57155 Z M51.7337925,104.454521 L51.0872622,105.992675 C49.794195,106.643224 48.5287764,107.114589 47.2909685,107.406784 C46.0531606,107.69898 44.7048544,107.845076 43.2460094,107.845076 C41.5329717,107.845076 39.9415282,107.630067 38.4716313,107.200043 C37.0017345,106.770019 35.7169754,106.155315 34.6173158,105.355912 C33.5176561,104.556509 32.6197062,103.660639 31.9234393,102.668277 C31.2271723,101.675914 30.6966912,100.598114 30.3319799,99.434845 C29.9672687,98.2715755 29.7849158,96.9953062 29.7849158,95.6059986 C29.7849158,92.0886246 31.0144163,89.1749815 33.4734543,86.864982 C35.9324924,84.5549824 39.2894433,83.4 43.544408,83.4 C44.5501269,83.4 45.4812318,83.4578869 46.3377507,83.5736626 C47.1942696,83.6894382 48.2386543,83.9099599 49.4709363,84.2352343 C50.7032183,84.5605087 51.4574961,84.7507087 51.7337925,84.8058399 C51.4906517,85.4122837 51.3082988,86.0076923 51.1867284,86.5920836 C51.0098987,87.529315 50.8883301,88.6153844 50.822019,89.8503244 L49.7776238,89.8503244 L49.7610461,87.8986878 C49.6505275,86.8181152 49.0509733,86.013211 47.9623655,85.483951 C46.8737576,84.9546909 45.2795513,84.6900649 43.1796986,84.6900649 C41.610335,84.7121174 40.2786063,84.9133434 39.1844725,85.2937491 C38.0903387,85.6741548 37.1260787,86.2750764 36.2916636,87.0965321 C35.4572485,87.9179878 34.7748066,88.9599528 34.2443175,90.2224585 C33.7138284,91.4849643 33.4430619,93.069964 33.4320101,94.9775054 C33.4320101,98.3184594 34.4542915,101.006068 36.4988849,103.040411 C38.5434783,105.074754 41.2456166,106.091911 44.6053809,106.091911 C46.1194852,106.091911 47.5230499,105.882415 48.8161171,105.463417 C49.7002656,105.176735 50.578875,104.724665 51.4519716,104.107195 L51.7337925,104.454521 Z M64.2109197,107.381976 L64.2109197,106.257304 C65.0840163,106.246277 65.6283121,106.210443 65.8438233,106.149798 C66.0593345,106.089154 66.2582649,105.97338 66.4406206,105.802473 C66.6229762,105.631566 66.8854538,105.187766 67.2280614,104.47106 C67.4269948,104.063089 68.1453547,102.513924 69.3831626,99.8235184 L73.5275879,90.4953569 C73.980714,89.4699156 74.947737,87.1875159 76.4286857,83.6480894 L77.5062363,83.6480894 L84.5849148,100.237001 C85.7343079,102.927406 86.4968745,104.614397 86.8726376,105.298025 C87.0826229,105.683943 87.3119455,105.937543 87.5606123,106.058832 C87.809279,106.180121 88.3701523,106.246277 89.243249,106.257304 L89.243249,107.381976 C87.5191594,107.271713 86.3145251,107.216583 85.62931,107.216583 L80.2912901,107.381976 L80.2912901,106.257304 C81.529098,106.235251 82.280613,106.19666 82.5458575,106.141528 C82.8111021,106.086397 82.9906921,106.006458 83.0846328,105.901709 C83.1785736,105.796959 83.2255433,105.667403 83.2255433,105.513035 C83.2255433,105.270458 83.1481815,104.956214 82.9934555,104.570296 L80.9543982,99.5092718 L71.355909,99.5092718 L69.5489396,103.75987 C69.2284357,104.520682 69.0681862,105.077499 69.0681862,105.430339 C69.0681862,105.584706 69.112393,105.711506 69.2008078,105.810743 C69.3223783,105.954084 69.510257,106.053319 69.7644497,106.10845 C70.1733684,106.19666 70.8917283,106.246277 71.9195509,106.257304 L71.9195509,107.381976 C70.0517872,107.282739 68.6537483,107.233122 67.7253924,107.233122 C66.6533624,107.233122 65.4818832,107.282739 64.2109197,107.381976 L64.2109197,107.381976 Z M71.9195509,98.1034319 L80.2912901,98.1034319 L76.1468648,88.1302379 L71.9195509,98.1034319 Z M103.096325,107.381976 L103.096325,106.521932 C103.78154,106.202171 104.218082,105.948571 104.405964,105.761125 C104.516482,105.661888 104.593844,105.535089 104.638052,105.380721 C104.737518,105.071986 104.803828,104.410421 104.836984,103.396006 C104.881191,101.885409 104.903295,100.986783 104.903295,100.700101 L104.903295,91.8019611 C104.903295,90.302391 104.886717,88.8359216 104.853562,87.402509 C104.820406,86.3550152 104.740281,85.7347979 104.613185,85.5418385 C104.486089,85.3488791 104.281632,85.20554 103.99981,85.1118169 C103.717988,85.0180937 102.919503,84.9602068 101.604332,84.9381543 L101.604332,83.8796395 C104.300985,83.9678495 105.96979,84.0119539 106.610798,84.0119539 C107.318117,84.0119539 108.904034,83.9678495 111.368598,83.8796395 L111.368598,84.9381543 C110.053427,84.9602068 109.254943,85.0180937 108.973121,85.1118169 C108.691298,85.20554 108.495131,85.3350965 108.384612,85.5004903 C108.25199,85.7210153 108.169102,86.2557804 108.135947,87.1048017 C108.124895,87.3253267 108.102791,88.8910309 108.069636,91.8019611 L108.069636,102.916366 C108.069636,104.074123 108.091739,105.016853 108.135947,105.744585 C109.395858,105.821769 110.644699,105.860361 111.882507,105.860361 C114.999131,105.860361 117.181839,105.661891 118.430699,105.264946 C118.574373,104.934158 118.701468,104.553758 118.811986,104.123735 L119.475094,101.378212 L120.5858,101.378212 C120.34266,103.021123 120.105048,104.950688 119.872959,107.166965 C119.419833,107.255175 119.060653,107.310305 118.795409,107.332358 C118.220712,107.365436 117.336577,107.381976 116.142976,107.381976 L106.328977,107.249661 C105.267999,107.249661 104.190459,107.293765 103.096325,107.381976 L103.096325,107.381976 Z M133.858657,107.381976 L133.858657,106.34 C135.019102,106.328974 135.781669,106.240765 136.14638,106.075371 C136.301106,106.009214 136.411623,105.904466 136.477934,105.761125 C136.588453,105.5406 136.665814,104.96173 136.710022,104.024499 C136.776333,102.569034 136.809488,101.31206 136.809488,100.25354 L136.809488,91.8019611 C136.809488,90.302391 136.792911,88.8359216 136.759755,87.402509 C136.726599,86.3550152 136.646475,85.7347979 136.519378,85.5418385 C136.392282,85.3488791 136.187826,85.20554 135.906003,85.1118169 C135.624181,85.0180937 134.825696,84.9602068 133.510526,84.9381543 L133.510526,83.8796395 L138.23517,83.9788753 L143.241636,83.8961788 C145.639889,83.8631001 147.38053,83.8465609 148.463612,83.8465609 C149.557746,83.8465609 150.591079,83.9072044 151.563642,84.0284932 C151.386813,84.6569894 151.265244,85.2027807 151.198933,85.6658832 C151.176829,85.7651195 151.077364,86.9118323 150.900534,89.1060562 L149.856139,89.1060562 C149.867191,87.9813787 149.795355,86.9559527 149.640629,86.0297477 C149.032777,85.7761439 148.36415,85.6052396 147.634727,85.5170296 C146.396919,85.3626621 145.15913,85.2854795 143.921322,85.2854795 C143.656077,85.2854795 143.064812,85.3075316 142.147508,85.3516366 C141.230204,85.3957416 140.572628,85.4343329 140.174762,85.4674117 C140.130554,86.6913255 140.097399,87.8380384 140.075295,88.9075847 L140.008984,94.4978659 C141.302052,94.5640234 142.490108,94.5971017 143.57319,94.5971017 C144.888361,94.5971017 146.010108,94.5364582 146.938464,94.4151694 C147.292123,94.3710644 147.518683,94.2828558 147.618149,94.1505407 C147.717616,94.0182257 147.80603,93.5661562 147.883393,92.7943187 L147.982859,91.6365681 L148.977521,91.6365681 L148.977521,91.9508147 L148.894632,95.3909878 L148.977521,99.2446431 L147.817082,99.2446431 L147.767349,98.1199712 C147.745245,97.3040286 147.670646,96.7968287 147.54355,96.5983562 C147.416453,96.3998837 147.176079,96.2620576 146.82242,96.1848738 C146.192464,96.0525588 144.971252,95.9864023 143.158748,95.9864023 C142.418273,95.9864023 141.368363,96.0139675 140.008984,96.0690988 C139.953725,97.1717239 139.926096,98.8090975 139.926096,100.981269 C139.926096,103.021125 139.953725,104.57029 140.008984,105.62881 C141.600452,105.750099 143.3853,105.810743 145.363582,105.810743 C146.767168,105.810743 147.767346,105.766638 148.364146,105.678428 C148.960946,105.590218 149.513531,105.441366 150.021916,105.231867 C150.154538,104.890054 150.287159,104.426958 150.419781,103.842567 C150.662922,102.86123 150.823171,102.122483 150.900534,101.626301 L151.994663,101.626301 C151.707314,103.853604 151.563642,105.700473 151.563642,107.166965 C150.613183,107.310306 149.458281,107.381976 148.098903,107.381976 L138.202015,107.249661 C138.058341,107.249661 136.610569,107.293765 133.858657,107.381976 L133.858657,107.381976 Z M164.886232,107.381976 L164.886232,106.290382 C165.659862,106.290382 166.171003,106.238008 166.41967,106.133259 C166.668337,106.028509 166.975021,105.761127 167.339732,105.331103 C167.704443,104.901079 168.53332,103.781932 169.826387,101.973627 L174.3521,95.7217736 L171.417847,90.7434463 C171.163654,90.3244488 170.658039,89.5719184 169.900987,88.4858327 C169.143935,87.399747 168.478071,86.5755472 167.903374,86.0132084 C167.660233,85.7926833 167.436436,85.6493442 167.231977,85.5831867 C167.027518,85.5170292 166.40586,85.483951 165.366986,85.483951 L165.366986,84.524672 L170.207675,83.7307859 C170.627645,84.0174684 171.01998,84.3923553 171.384691,84.8554578 C171.904129,85.5170329 172.63354,86.6582327 173.572948,88.2790916 L176.358002,93.092026 C179.750922,88.2845806 181.502615,85.6548593 181.613133,85.202783 L181.613133,83.8796395 C182.806734,83.9237445 183.624559,83.9457967 184.066633,83.9457967 C184.508707,83.9457967 185.177335,83.9237445 186.072535,83.8796395 L186.072535,84.8885364 C185.376268,84.9216152 184.939726,84.962963 184.762896,85.0125811 C184.586067,85.0621992 184.425817,85.1311123 184.282143,85.2193223 C184.08321,85.3516373 183.79034,85.6438286 183.403525,86.0959048 C183.01671,86.5479811 182.303876,87.4741723 181.265001,88.8745061 C180.226127,90.27484 179.270156,91.570405 178.397059,92.7612401 L177.153731,94.4151694 L182.773572,103.478702 C183.502995,104.658511 184.044528,105.441363 184.398187,105.827282 C184.563965,106.014728 184.746318,106.136015 184.945251,106.191146 C185.144185,106.246278 185.608356,106.279356 186.337778,106.290382 L186.337778,107.381976 C185.133126,107.337871 184.320827,107.315818 183.900856,107.315818 C183.436678,107.315818 182.613327,107.337871 181.430778,107.381976 C180.767667,106.389613 180.154298,105.413804 179.590654,104.454521 L175.230718,97.0283778 L173.12535,100.005451 C171.047601,103.092801 169.793234,105.154679 169.362212,106.191146 L169.329056,107.381976 C168.179663,107.337871 167.406045,107.315818 167.008178,107.315818 C166.742934,107.315818 166.035625,107.337871 164.886232,107.381976 L164.886232,107.381976 Z" id="SCALEX" fill="#000000"></path>
                <path d="M3.66212992,136.856414 C3.74465044,136.362438 3.79364627,135.562312 3.80911887,134.456011 L4.3351846,134.456011 C4.36097226,135.207267 4.40352127,135.651066 4.4628329,135.787424 C4.52214453,135.923782 4.66526392,136.069143 4.89219537,136.22351 C5.11912682,136.377878 5.42341669,136.51552 5.80507413,136.636441 C6.18673157,136.757363 6.55548964,136.817822 6.91135941,136.817822 C7.43227023,136.817822 7.9119136,136.698189 8.3503039,136.45892 C8.7886942,136.21965 9.10845644,135.905774 9.30960023,135.517283 C9.51074401,135.128791 9.61131439,134.713291 9.61131439,134.270771 C9.61131439,133.931163 9.5610292,133.637869 9.46045731,133.390881 C9.35988542,133.143893 9.20645111,132.944504 9.0001498,132.79271 C8.79384848,132.640915 8.53855443,132.534146 8.23425999,132.472399 C8.04343127,132.441525 7.66177956,132.39007 7.08929341,132.318032 C6.51680725,132.245994 6.0294277,132.166238 5.62714013,132.078764 C5.09075671,131.914105 4.69621136,131.721148 4.44349225,131.499888 C4.19077314,131.278628 3.98576428,130.987907 3.82845952,130.627716 C3.67115477,130.267525 3.59250357,129.87904 3.59250357,129.462247 C3.59250357,128.855068 3.75109533,128.282631 4.0682836,127.744917 C4.38547188,127.207204 4.85480033,126.789131 5.47628305,126.490688 C6.09776577,126.192244 6.77210308,126.043024 7.49931522,126.043024 C7.93770552,126.043024 8.41605952,126.100911 8.93439158,126.216687 C9.45272364,126.332462 9.9362351,126.500978 10.3849405,126.722238 C10.312735,127.046409 10.2611604,127.348708 10.2302152,127.629142 C10.1992701,127.909577 10.1760615,128.322503 10.1605889,128.867935 L9.63452317,128.867935 C9.61905058,128.075515 9.59584203,127.643293 9.56489683,127.571255 C9.43595851,127.386014 9.26060502,127.218785 9.0388311,127.069563 C8.50760521,126.771119 7.95317874,126.621899 7.37553505,126.621899 C6.62769278,126.621899 6.0307173,126.849588 5.5845907,127.304972 C5.1384641,127.760356 4.91540415,128.350803 4.91540415,129.07633 C4.91540415,129.513705 4.99534471,129.852022 5.15522823,130.091292 C5.31511175,130.330561 5.60135054,130.522232 6.01395317,130.666308 C6.29761748,130.764074 6.76178848,130.855407 7.40648009,130.940309 C8.05117171,131.025211 8.63138546,131.116544 9.14713875,131.21431 C9.63194685,131.358386 9.99039001,131.529474 10.222479,131.727579 C10.454568,131.925684 10.6453938,132.185532 10.7949623,132.507131 C10.9445307,132.82873 11.0193138,133.205639 11.0193138,133.637868 C11.0193138,134.661839 10.5938238,135.554584 9.74283082,136.316131 C8.89183789,137.077677 7.79072113,137.458444 6.43944751,137.458444 C5.41825599,137.458444 4.49249272,137.25777 3.66212992,136.856414 L3.66212992,136.856414 Z M30.3268102,126.946069 L30.3268102,126.475251 L32.191249,126.112489 C32.3975503,126.184527 32.5393803,126.252705 32.6167433,126.317025 C32.6941063,126.381345 32.8565662,126.57816 33.1041278,126.907478 C33.4703126,127.396308 33.893224,128.062651 34.3728745,128.906527 C34.8525251,129.750403 35.3631132,130.715185 35.9046541,131.800903 C36.4513526,130.962173 37.0109366,130.051419 37.5834227,129.068612 L39.2312462,126.266856 L40.4148941,126.266856 L40.4148941,126.475251 C40.1312298,126.789132 39.6103268,127.470911 38.8521695,128.52061 C38.4137792,129.127789 37.8438803,130.010243 37.1424558,131.168 C36.7040656,131.883236 36.4565077,132.32189 36.3997748,132.483976 C36.343042,132.646062 36.314676,132.799141 36.314676,132.943217 L36.314676,133.537529 C36.314676,134.237329 36.3224121,134.919108 36.3378847,135.582888 C36.3533573,136.071719 36.3907489,136.36244 36.4500605,136.455061 C36.5093721,136.547681 36.6047851,136.615859 36.7363022,136.659596 C36.8678193,136.703334 37.2404454,136.730348 37.8541918,136.740639 L37.8541918,137.234613 C37.013514,137.193448 36.2863127,137.172866 35.6725663,137.172866 C35.0846076,137.172866 34.3084105,137.193448 33.3439518,137.234613 L33.3439518,136.740639 C33.9525407,136.730348 34.3238775,136.703334 34.4579734,136.659596 C34.5920692,136.615859 34.6823247,136.555399 34.7287425,136.478216 C34.7957904,136.375304 34.8370501,136.125747 34.8525227,135.729537 C34.8576802,135.62148 34.8679951,134.890818 34.8834677,133.537529 L34.8834677,132.634484 C34.7751595,132.402933 34.6694317,132.194539 34.566281,132.009298 C34.4940756,131.880659 34.2310453,131.438145 33.7771824,130.681745 L33.2665892,129.848164 C32.8643017,129.189529 32.5651693,128.721288 32.369183,128.443427 C31.9926831,127.908286 31.680657,127.524946 31.4330955,127.293395 C31.2989996,127.164755 31.1584589,127.074709 31.0114692,127.023253 C30.8644796,126.971797 30.6362622,126.946069 30.3268102,126.946069 L30.3268102,126.946069 Z M59.8925882,136.856414 C59.9751087,136.362438 60.0241045,135.562312 60.0395771,134.456011 L60.5656429,134.456011 C60.5914305,135.207267 60.6339795,135.651066 60.6932912,135.787424 C60.7526028,135.923782 60.8957222,136.069143 61.1226536,136.22351 C61.3495851,136.377878 61.653875,136.51552 62.0355324,136.636441 C62.4171898,136.757363 62.7859479,136.817822 63.1418177,136.817822 C63.6627285,136.817822 64.1423719,136.698189 64.5807622,136.45892 C65.0191525,136.21965 65.3389147,135.905774 65.5400585,135.517283 C65.7412023,135.128791 65.8417727,134.713291 65.8417727,134.270771 C65.8417727,133.931163 65.7914875,133.637869 65.6909156,133.390881 C65.5903437,133.143893 65.4369094,132.944504 65.2306081,132.79271 C65.0243068,132.640915 64.7690127,132.534146 64.4647183,132.472399 C64.2738895,132.441525 63.8922378,132.39007 63.3197517,132.318032 C62.7472655,132.245994 62.259886,132.166238 61.8575984,132.078764 C61.321215,131.914105 60.9266696,131.721148 60.6739505,131.499888 C60.4212314,131.278628 60.2162226,130.987907 60.0589178,130.627716 C59.901613,130.267525 59.8229618,129.87904 59.8229618,129.462247 C59.8229618,128.855068 59.9815536,128.282631 60.2987419,127.744917 C60.6159302,127.207204 61.0852586,126.789131 61.7067413,126.490688 C62.328224,126.192244 63.0025614,126.043024 63.7297735,126.043024 C64.1681638,126.043024 64.6465178,126.100911 65.1648499,126.216687 C65.6831819,126.332462 66.1666934,126.500978 66.6153987,126.722238 C66.5431933,127.046409 66.4916187,127.348708 66.4606735,127.629142 C66.4297283,127.909577 66.4065198,128.322503 66.3910472,128.867935 L65.8649815,128.867935 C65.8495089,128.075515 65.8263003,127.643293 65.7953551,127.571255 C65.6664168,127.386014 65.4910633,127.218785 65.2692894,127.069563 C64.7380635,126.771119 64.183637,126.621899 63.6059933,126.621899 C62.8581511,126.621899 62.2611756,126.849588 61.815049,127.304972 C61.3689224,127.760356 61.1458624,128.350803 61.1458624,129.07633 C61.1458624,129.513705 61.225803,129.852022 61.3856865,130.091292 C61.54557,130.330561 61.8318088,130.522232 62.2444114,130.666308 C62.5280758,130.764074 62.9922468,130.855407 63.6369384,130.940309 C64.28163,131.025211 64.8618437,131.116544 65.377597,131.21431 C65.8624051,131.358386 66.2208483,131.529474 66.4529373,131.727579 C66.6850262,131.925684 66.8758521,132.185532 67.0254206,132.507131 C67.174989,132.82873 67.2497721,133.205639 67.2497721,133.637868 C67.2497721,134.661839 66.824282,135.554584 65.9732891,136.316131 C65.1222962,137.077677 64.0211794,137.458444 62.6699058,137.458444 C61.6487143,137.458444 60.722951,137.25777 59.8925882,136.856414 L59.8925882,136.856414 Z M87.2690044,128.821625 L86.7893563,128.821625 C86.7841987,127.591831 86.7584115,126.740249 86.7119937,126.266856 C87.2741648,126.287438 88.1560897,126.313166 89.3577948,126.344039 C90.3325685,126.364622 90.9824079,126.374913 91.3073325,126.374913 C91.6580448,126.374913 92.470344,126.359476 93.7442546,126.328602 C94.667453,126.30802 95.340501,126.287438 95.7634187,126.266856 C95.7015283,126.843161 95.6602686,127.694742 95.6396385,128.821625 L95.1445178,128.821625 L95.0826277,128.080665 C95.0413675,127.632999 95.0130015,127.378297 94.9975289,127.31655 C94.9820563,127.254803 94.9601371,127.211066 94.9317707,127.185338 C94.9034042,127.15961 94.8608552,127.139028 94.8041224,127.123591 C94.7319169,127.108154 94.4740441,127.087572 94.0304963,127.061845 C93.5869485,127.036117 93.2362415,127.023253 92.9783648,127.023253 L92.034541,127.023253 C91.9829657,127.517229 91.9571784,128.183572 91.9571784,129.022302 L91.9571784,133.537529 C91.9571784,134.237329 91.9649146,134.919108 91.9803872,135.582888 C91.9958598,136.071719 92.0332514,136.36244 92.092563,136.455061 C92.1518746,136.547681 92.2472875,136.615859 92.3788046,136.659596 C92.5103217,136.703334 92.8829479,136.730348 93.4966943,136.740639 L93.4966943,137.234613 C92.5734959,137.193448 91.8798181,137.172866 91.4156402,137.172866 C91.2144964,137.172866 90.4099333,137.193448 89.0019268,137.234613 L89.0019268,136.740639 C89.6156733,136.730348 89.9895888,136.703334 90.1236846,136.659596 C90.2577805,136.615859 90.348036,136.555399 90.3944538,136.478216 C90.4615017,136.375304 90.5027613,136.125747 90.5182339,135.729537 C90.5182339,135.62148 90.5285488,134.890818 90.549179,133.537529 L90.549179,129.037739 C90.549179,128.821624 90.5440215,128.584931 90.5337065,128.327652 L90.4872889,127.023253 L89.334586,127.023253 C88.6692643,127.023253 88.1406251,127.04898 87.7486526,127.100436 C87.6248718,127.115873 87.5449312,127.149319 87.5088285,127.200775 C87.4520957,127.288249 87.4005211,127.56868 87.3541033,128.042073 L87.2690044,128.821625 Z M115.310739,137.234613 L115.310739,136.748357 C115.85228,136.743212 116.208144,136.702048 116.378343,136.624864 C116.450549,136.59399 116.502123,136.545108 116.533068,136.478216 C116.584644,136.375304 116.620746,136.105165 116.641376,135.66779 C116.672321,134.988573 116.687794,134.401985 116.687794,133.908009 L116.687794,129.963939 C116.687794,129.26414 116.680057,128.579787 116.664585,127.910862 C116.649112,127.422031 116.611721,127.132596 116.552409,127.042549 C116.493097,126.952501 116.397684,126.885609 116.266167,126.841872 C116.13465,126.798134 115.762024,126.771121 115.148278,126.760829 L115.148278,126.266856 L117.353112,126.313166 L119.689463,126.274574 C120.808647,126.259137 121.620947,126.251419 122.126385,126.251419 C122.636981,126.251419 123.119203,126.279719 123.573066,126.336321 C123.490545,126.629619 123.433813,126.884322 123.402868,127.100436 C123.392553,127.146746 123.346136,127.681879 123.263615,128.70585 L122.776231,128.70585 C122.781388,128.181001 122.747865,127.702469 122.675659,127.27024 C122.391995,127.151891 122.079969,127.072136 121.739572,127.030971 C121.161928,126.958933 120.584293,126.922914 120.006649,126.922914 C119.882869,126.922914 119.606945,126.933205 119.178869,126.953788 C118.750794,126.97437 118.443926,126.992379 118.258254,127.007816 C118.237624,127.578976 118.222152,128.114109 118.211837,128.61323 L118.180892,131.222028 C118.784323,131.252902 119.33875,131.268338 119.844188,131.268338 C120.457934,131.268338 120.981416,131.240038 121.414649,131.183436 C121.57969,131.162854 121.685418,131.12169 121.731835,131.059943 C121.778253,130.998196 121.819513,130.78723 121.855616,130.427039 L121.902033,129.886756 L122.366209,129.886756 L122.366209,130.033404 L122.327528,131.638818 L122.366209,133.437191 L121.824671,133.437191 L121.801462,132.912344 C121.791147,132.531571 121.756334,132.294877 121.697022,132.202257 C121.637711,132.109636 121.525536,132.045318 121.360495,132.009298 C121.066516,131.947551 120.496617,131.916678 119.650781,131.916678 C119.305227,131.916678 118.815268,131.929542 118.180892,131.95527 C118.155104,132.469828 118.142211,133.233936 118.142211,134.247616 C118.142211,135.199549 118.155104,135.922493 118.180892,136.416469 C118.923577,136.47307 119.756506,136.501371 120.679704,136.501371 C121.334711,136.501371 121.80146,136.480789 122.079967,136.439624 C122.358474,136.398459 122.616347,136.328995 122.853593,136.231229 C122.915484,136.071716 122.977373,135.855604 123.039264,135.582888 C123.152729,135.124932 123.227512,134.780183 123.263615,134.548631 L123.774208,134.548631 C123.640112,135.588039 123.573066,136.449912 123.573066,137.134274 C123.129518,137.201167 122.590564,137.234613 121.956187,137.234613 L117.337639,137.172866 C117.270591,137.172866 116.594965,137.193448 115.310739,137.234613 L115.310739,137.234613 Z M143.406628,126.760829 L143.406628,126.266856 C143.948169,126.287438 144.466493,126.297729 144.961616,126.297729 C145.461897,126.297729 145.94154,126.287438 146.40056,126.266856 C146.854423,127.295973 147.269599,128.199009 147.646098,128.975992 L150.578141,134.996295 L153.223942,129.477684 C153.945997,127.975174 154.428219,126.904908 154.670623,126.266856 C155.217322,126.287438 155.678914,126.297729 156.055414,126.297729 C156.400969,126.297729 156.960552,126.287438 157.734182,126.266856 L157.734182,126.760829 C157.120436,126.771121 156.74781,126.798134 156.616293,126.841872 C156.484776,126.885609 156.393231,126.946069 156.341655,127.023253 C156.274608,127.126164 156.235927,127.375722 156.225612,127.771932 C156.220454,127.874843 156.20756,128.605505 156.18693,129.963939 L156.18693,133.537529 C156.18693,134.237329 156.197245,134.919108 156.217875,135.582888 C156.233348,136.071719 156.270739,136.36244 156.330051,136.455061 C156.389363,136.547681 156.484776,136.615859 156.616293,136.659596 C156.74781,136.703334 157.120436,136.730348 157.734182,136.740639 L157.734182,137.234613 C156.692361,137.188302 155.957423,137.165148 155.529348,137.165148 C155.183793,137.165148 154.42049,137.188302 153.239415,137.234613 L153.239415,136.740639 C153.853161,136.730348 154.227077,136.703334 154.361173,136.659596 C154.495269,136.615859 154.585524,136.555399 154.631942,136.478216 C154.69899,136.375304 154.737671,136.125747 154.747986,135.729537 C154.753143,135.62148 154.766037,134.890818 154.786667,133.537529 L154.786667,127.87227 L152.117657,133.444909 C151.699897,134.314513 151.372399,135.014302 151.135152,135.544297 C150.964953,135.930216 150.707081,136.542531 150.361526,137.381261 L150.059812,137.381261 C149.992764,137.185729 149.930874,137.028791 149.874142,136.910442 L149.348076,135.791284 L145.650143,128.126975 L145.650143,133.537529 C145.650143,134.237329 145.660458,134.919108 145.681088,135.582888 C145.696561,136.071719 145.733952,136.36244 145.793264,136.455061 C145.852576,136.547681 145.947989,136.615859 146.079506,136.659596 C146.211023,136.703334 146.583649,136.730348 147.197395,136.740639 L147.197395,137.234613 L145.332956,137.172866 L143.406628,137.234613 L143.406628,136.740639 C144.015216,136.730348 144.386553,136.703334 144.520649,136.659596 C144.654745,136.615859 144.747579,136.555399 144.799155,136.478216 C144.861045,136.375304 144.899726,136.125747 144.915198,135.729537 C144.920356,135.62148 144.930671,134.890818 144.946143,133.537529 L144.946143,129.963939 C144.946143,129.26414 144.938407,128.579787 144.922935,127.910862 C144.907462,127.422031 144.870071,127.132596 144.810759,127.042549 C144.751447,126.952501 144.656034,126.885609 144.524517,126.841872 C144.393,126.798134 144.020374,126.771121 143.406628,126.760829 L143.406628,126.760829 Z M177.273767,136.856414 C177.356287,136.362438 177.405283,135.562312 177.420756,134.456011 L177.946821,134.456011 C177.972609,135.207267 178.015158,135.651066 178.07447,135.787424 C178.133781,135.923782 178.276901,136.069143 178.503832,136.22351 C178.730763,136.377878 179.035053,136.51552 179.416711,136.636441 C179.798368,136.757363 180.167126,136.817822 180.522996,136.817822 C181.043907,136.817822 181.52355,136.698189 181.961941,136.45892 C182.400331,136.21965 182.720093,135.905774 182.921237,135.517283 C183.122381,135.128791 183.222951,134.713291 183.222951,134.270771 C183.222951,133.931163 183.172666,133.637869 183.072094,133.390881 C182.971522,133.143893 182.818088,132.944504 182.611786,132.79271 C182.405485,132.640915 182.150191,132.534146 181.845897,132.472399 C181.655068,132.441525 181.273416,132.39007 180.70093,132.318032 C180.128444,132.245994 179.641064,132.166238 179.238777,132.078764 C178.702393,131.914105 178.307848,131.721148 178.055129,131.499888 C177.80241,131.278628 177.597401,130.987907 177.440096,130.627716 C177.282791,130.267525 177.20414,129.87904 177.20414,129.462247 C177.20414,128.855068 177.362732,128.282631 177.67992,127.744917 C177.997109,127.207204 178.466437,126.789131 179.08792,126.490688 C179.709402,126.192244 180.38374,126.043024 181.110952,126.043024 C181.549342,126.043024 182.027696,126.100911 182.546028,126.216687 C183.06436,126.332462 183.547872,126.500978 183.996577,126.722238 C183.924372,127.046409 183.872797,127.348708 183.841852,127.629142 C183.810907,127.909577 183.787698,128.322503 183.772226,128.867935 L183.24616,128.867935 C183.230687,128.075515 183.207479,127.643293 183.176533,127.571255 C183.047595,127.386014 182.872242,127.218785 182.650468,127.069563 C182.119242,126.771119 181.564815,126.621899 180.987172,126.621899 C180.239329,126.621899 179.642354,126.849588 179.196227,127.304972 C178.750101,127.760356 178.527041,128.350803 178.527041,129.07633 C178.527041,129.513705 178.606981,129.852022 178.766865,130.091292 C178.926748,130.330561 179.212987,130.522232 179.62559,130.666308 C179.909254,130.764074 180.373425,130.855407 181.018117,130.940309 C181.662808,131.025211 182.243022,131.116544 182.758775,131.21431 C183.243583,131.358386 183.602027,131.529474 183.834116,131.727579 C184.066205,131.925684 184.25703,132.185532 184.406599,132.507131 C184.556167,132.82873 184.63095,133.205639 184.63095,133.637868 C184.63095,134.661839 184.20546,135.554584 183.354467,136.316131 C182.503475,137.077677 181.402358,137.458444 180.051084,137.458444 C179.029893,137.458444 178.104129,137.25777 177.273767,136.856414 L177.273767,136.856414 Z" id="SYSTEMS" fill="#000000"></path>
            </g>
        </g>
    </g>
</svg>