<?xml version="1.0" encoding="UTF-8" standalone="no"?>
<svg width="440px" height="445px" viewBox="0 0 440 445" version="1.1" xmlns="http://www.w3.org/2000/svg" xmlns:xlink="http://www.w3.org/1999/xlink">
    <!-- Generator: Sketch 3.8.3 (29802) - http://www.bohemiancoding.com/sketch -->
    <title>Group</title>
    <desc>Created with Sketch.</desc>
    <defs></defs>
    <g id="Page-1" stroke="none" stroke-width="1" fill="none" fill-rule="evenodd">
        <g id="Desktop-Copy-3" transform="translate(-291.000000, -292.000000)">
            <g id="Group" transform="translate(291.000000, 292.000000)">
                <path d="M0,443.294118 L0,439.941176 L14.1258335,422.352941 L47.5940946,379.176471 C52.2831914,373.137225 55.7022732,368.470605 57.8514426,365.176471 L37.9814942,365.176471 C27.7436329,365.294118 20.3779538,365.666664 15.884236,366.294118 C14.477507,366.529413 13.5494705,366.882351 13.1000987,367.352941 C12.6507269,367.823532 12.3088187,369.019598 12.0743639,370.941176 L11.1951627,379.235294 L7.44390396,379.235294 C7.639283,375.901944 7.73697105,373.137266 7.73697105,370.941176 C7.73697105,366.588214 7.639283,362.843153 7.44390396,359.705882 C9.16323946,359.627451 15.3761995,359.588235 26.0829706,359.588235 L48.0043885,359.823529 L61.3682476,360.058824 C64.5724638,360.058824 68.8121252,359.941178 74.0873591,359.705882 L74.0873591,363.235294 C70.0234752,368.019632 67.0146832,371.666654 65.0608929,374.176471 L16.1773031,437.294118 C17.2714257,437.294118 21.4524743,437.392156 28.7205743,437.588235 C32.7844582,437.666667 36.6529051,437.705882 40.3260309,437.705882 C47.7113584,437.705882 54.6081348,437.450983 61.0165671,436.941176 C64.4552381,436.666665 66.516456,436.196082 67.2002826,435.529412 C67.8841092,434.862742 68.4800064,433.098054 68.9879918,430.235294 L70.3947139,421.882353 L74.0873591,421.882353 C73.8138285,425.019624 73.6184524,427.999986 73.501225,430.823529 L73.1495445,442.705882 C69.202888,443.098041 64.3184854,443.294118 58.4961902,443.294118 L28.3102804,442.941176 L17.290958,442.823529 C16.8611241,442.823529 12.5042371,442.921568 4.22016603,443.117647 C2.69620956,443.156863 1.28950162,443.215686 0,443.294118 L0,443.294118 Z M120.840069,443.294118 L120.840069,439.588235 C124.943029,439.549019 127.639219,439.235297 128.92872,438.647059 C129.475782,438.411764 129.866534,438.039218 130.100989,437.529412 C130.491747,436.745094 130.765273,434.686291 130.921577,431.352941 C131.156031,426.176445 131.273257,421.705901 131.273257,417.941176 L131.273257,387.882353 C131.273257,382.548993 131.214644,377.333359 131.097417,372.235294 C130.980189,368.509785 130.696894,366.303925 130.247522,365.617647 C129.79815,364.931369 129.075259,364.42157 128.078826,364.088235 C127.082393,363.7549 124.259208,363.54902 119.609187,363.470588 L119.609187,359.705882 L136.314011,360.058824 L154.015263,359.764706 C162.494713,359.647058 168.64906,359.588235 172.478489,359.588235 C176.346994,359.588235 180.000527,359.803919 183.439198,360.235294 C182.813985,362.470599 182.384158,364.411756 182.149703,366.058824 C182.071551,366.411766 181.719874,370.490157 181.094662,378.294118 L177.402016,378.294118 C177.441092,374.294098 177.187103,370.647075 176.640042,367.352941 C174.490872,366.450976 172.126822,365.843139 169.547818,365.529412 C165.171328,364.980389 160.794903,364.705882 156.418413,364.705882 C155.480594,364.705882 153.390069,364.784313 150.146777,364.941176 C146.903485,365.09804 144.57851,365.235294 143.171781,365.352941 C143.015477,369.705904 142.898252,373.784295 142.8201,377.588235 L142.585647,397.470588 C147.157516,397.705884 151.358102,397.823529 155.187531,397.823529 C159.837552,397.823529 163.803687,397.607845 167.086055,397.176471 C168.336481,397.019607 169.137523,396.705885 169.489205,396.235294 C169.840887,395.764704 170.153489,394.156876 170.42702,391.411765 L170.7787,387.294118 L174.295505,387.294118 L174.295505,388.411765 L174.002438,400.647059 L174.295505,414.352941 L170.192566,414.352941 L170.016726,410.352941 C169.938574,407.450966 169.674816,405.647062 169.225445,404.941176 C168.776073,404.235291 167.926187,403.745099 166.675761,403.470588 C164.44844,402.999998 160.130628,402.764706 153.722196,402.764706 C151.104117,402.764706 147.391971,402.862744 142.585647,403.058824 C142.390268,406.980412 142.292579,412.803883 142.292579,420.529412 C142.292579,427.78435 142.390268,433.294099 142.585647,437.058824 C148.212563,437.490198 154.523211,437.705882 161.51778,437.705882 C166.480408,437.705882 170.016715,437.549021 172.126809,437.235294 C174.236902,436.921567 176.190663,436.392161 177.98815,435.647059 C178.45706,434.431366 178.925963,432.784324 179.394872,430.705882 C180.25454,427.215669 180.821131,424.588244 181.094662,422.823529 L184.963147,422.823529 C183.947176,430.745138 183.439198,437.313699 183.439198,442.529412 C180.078679,443.039218 175.995318,443.294118 171.188994,443.294118 L136.196784,442.823529 C135.688799,442.823529 130.569945,442.980391 120.840069,443.294118 L120.840069,443.294118 Z M231.364176,363.470588 L231.364176,359.705882 C232.888133,359.745098 235.213108,359.803921 238.339173,359.882353 L249.592949,360.176471 C251.82027,360.176471 255.278427,360.09804 259.967524,359.941176 C266.06335,359.705881 269.599657,359.588235 270.576552,359.588235 C278.040031,359.588235 283.481256,360.254895 286.900389,361.588235 C290.319522,362.921575 292.966868,365.08822 294.842507,368.088235 C296.718146,371.08825 297.655951,374.352924 297.655951,377.882353 C297.655951,381.176487 296.776758,384.450964 295.018347,387.705882 C293.259936,390.960801 290.710278,393.666656 287.369296,395.823529 C284.028315,397.980403 279.681196,399.647053 274.327811,400.823529 C275.304706,402.196085 277.610144,405.254878 281.244194,410 L296.014775,429.529412 C300.234962,434.980419 302.696701,438.019605 303.400066,438.647059 C303.751748,438.92157 304.103425,439.117646 304.455107,439.235294 C305.041244,439.431374 306.330727,439.529412 308.323593,439.529412 L308.323593,443.294118 C305.353832,443.058822 302.755329,442.941176 300.528008,442.941176 C298.222536,442.941176 295.389582,443.058822 292.029063,443.294118 C289.489135,440.352926 285.229936,434.607886 279.251338,426.058824 C275.929894,421.313702 272.999253,417.352957 270.459325,414.176471 C266.356366,408.921542 262.448844,404.156884 258.736642,399.882353 L259.322776,398.117647 C261.354718,398.235295 262.898189,398.294118 263.953236,398.294118 C271.065033,398.294118 276.457413,396.60786 280.130539,393.235294 C283.803665,389.862728 285.6402,385.411792 285.6402,379.882353 C285.6402,375.058799 284.057654,371.225504 280.892514,368.382353 C277.727373,365.539201 272.940659,364.117647 266.532226,364.117647 C262.507418,364.117647 258.560821,364.725484 254.692316,365.941176 C254.536013,368.058834 254.418787,370.039206 254.340636,371.882353 C254.30156,372.431375 254.164797,378.137201 253.930342,389 L253.930342,415.117647 C253.930342,420.451007 254.008492,425.647034 254.164795,430.705882 C254.242947,434.431391 254.506705,436.647055 254.956077,437.352941 C255.405448,438.058827 256.138109,438.57843 257.15408,438.911765 C258.170051,439.2451 260.983467,439.45098 265.594412,439.529412 L265.594412,443.294118 C260.045647,442.980391 254.946331,442.823529 250.29631,442.823529 C246.545033,442.823529 240.234384,442.980391 231.364176,443.294118 L231.364176,439.529412 C235.975121,439.45098 238.788537,439.2451 239.804508,438.911765 C240.820479,438.57843 241.523833,438.11765 241.914591,437.529412 C242.383501,436.745094 242.676565,434.843152 242.793793,431.823529 C242.832868,430.999996 242.911019,425.431424 243.028246,415.117647 L243.028246,387.882353 C243.028246,382.548993 242.969633,377.333359 242.852406,372.235294 C242.735179,368.509785 242.451883,366.303925 242.002511,365.617647 C241.55314,364.931369 240.830248,364.42157 239.833815,364.088235 C238.837382,363.7549 236.014197,363.54902 231.364176,363.470588 L231.364176,363.470588 Z M350.504456,402.058824 C350.504456,395.862714 351.432493,390.137281 353.288593,384.882353 C355.144694,379.627425 358.221868,374.901982 362.520207,370.705882 C366.818545,366.509783 371.68341,363.343148 377.114947,361.205882 C382.546484,359.068617 388.759445,358 395.754014,358 C402.201522,358 408.062805,358.911756 413.338039,360.735294 C418.613273,362.558833 422.940854,364.970573 426.320911,367.970588 C429.700968,370.970603 432.367852,374.254884 434.321642,377.823529 C435.806523,380.490209 436.988548,383.627433 437.867754,387.235294 C438.74696,390.843155 439.186556,394.705862 439.186556,398.823529 C439.186556,412.039282 434.761287,423.039172 425.910617,431.823529 C417.059947,440.607887 405.894203,445 392.413049,445 C386.278148,445 380.553628,444.00001 375.239318,442 C369.925008,439.99999 365.431358,437.029431 361.758232,433.088235 C358.085106,429.147039 355.291228,424.362773 353.376513,418.735294 C351.461799,413.107815 350.504456,407.549047 350.504456,402.058824 L350.504456,402.058824 Z M362.696047,397.176471 C362.696047,400.901979 363.067261,404.686255 363.809702,408.529412 C364.552142,412.372568 365.489947,415.686261 366.623146,418.470588 C368.498784,423.176494 370.950755,427.127435 373.97913,430.323529 C377.007505,433.519624 380.387511,435.872541 384.119251,437.382353 C387.85099,438.892164 391.983195,439.647059 396.515988,439.647059 C402.807193,439.647059 408.277724,438.107859 412.927745,435.029412 C417.577766,431.950965 421.045692,427.617675 423.331627,422.029412 C425.617561,416.441149 426.760512,410.000036 426.760512,402.705882 C426.760512,396.470557 425.939932,390.725516 424.298748,385.470588 C423.282777,382.254886 421.934682,379.34315 420.254422,376.735294 C418.574163,374.127438 416.571558,371.852951 414.246547,369.911765 C411.921537,367.970579 408.902976,366.33334 405.190774,365 C401.478572,363.66666 397.473362,363 393.175024,363 C386.96197,363 381.510977,364.392143 376.82188,367.176471 C372.132783,369.960798 368.606245,373.99017 366.242158,379.264706 C363.878072,384.539242 362.696047,390.509771 362.696047,397.176471 L362.696047,397.176471 Z" id="ZERO" fill="#000000"></path>
                <path d="M6.26374358,309.732252 C6.57633013,307.871526 6.76192562,304.857582 6.82053559,300.690331 L8.81326489,300.690331 C8.91094819,303.520185 9.07212321,305.191906 9.2967948,305.705544 C9.52146638,306.219182 10.0636005,306.766731 10.9232136,307.348208 C11.7828266,307.929685 12.9354722,308.448161 14.381185,308.903651 C15.8268978,309.359141 17.223748,309.586883 18.5717775,309.586883 C20.5449801,309.586883 22.3618622,309.136245 24.0224782,308.234956 C25.6830943,307.333667 26.894349,306.151348 27.6562787,304.687965 C28.4182084,303.224581 28.7991676,301.659463 28.7991676,299.992563 C28.7991676,298.713313 28.608688,297.608524 28.2277231,296.678161 C27.8467583,295.747798 27.2655514,294.996735 26.484085,294.424949 C25.7026186,293.853164 24.7355685,293.450982 23.5829056,293.218391 C22.8600492,293.102095 21.4143581,292.908273 19.2457889,292.636917 C17.0772197,292.365561 15.231033,292.065136 13.7071736,291.735632 C11.675361,291.11539 10.180829,290.388555 9.22353269,289.555105 C8.26623638,288.721655 7.48966581,287.626556 6.8937977,286.269777 C6.29792959,284.912997 6,283.449636 6,281.879648 C6,279.592506 6.60074327,277.436228 7.80224782,275.410751 C9.00375238,273.385273 10.7815617,271.810463 13.1357292,270.686275 C15.4898966,269.562086 18.0442765,269 20.7989455,269 C22.4595616,269 24.2715596,269.218051 26.2349938,269.654158 C28.1984281,270.090266 30.0299625,270.725035 31.7296518,271.558485 C31.4561386,272.779587 31.2607749,273.918295 31.143555,274.974645 C31.026335,276.030995 30.9384214,277.586422 30.8798114,279.640974 L28.8870821,279.640974 C28.8284721,276.656059 28.7405585,275.027948 28.6233385,274.756592 C28.134922,274.05882 27.4706856,273.428896 26.6306092,272.866802 C24.6183333,271.742613 22.5181739,271.180527 20.330068,271.180527 C17.4972524,271.180527 15.235918,272.038193 13.545997,273.75355 C11.8560759,275.468906 11.0111281,277.693022 11.0111281,280.425963 C11.0111281,282.073481 11.3139418,283.347866 11.9195782,284.249155 C12.5252147,285.150444 13.609483,285.872434 15.1724157,286.415145 C16.246932,286.783414 18.005205,287.127449 20.4472874,287.447262 C22.8893698,287.767074 25.0872111,288.111109 27.040877,288.479378 C28.877323,289.02209 30.2351005,289.66655 31.1142501,290.412779 C31.9933998,291.159008 32.7162454,292.137812 33.2828085,293.349222 C33.8493716,294.560633 34.1326489,295.980384 34.1326489,297.608519 C34.1326489,301.465649 32.5208987,304.828473 29.2973499,307.697093 C26.0738011,310.565712 21.9027869,312 16.7841821,312 C12.9159235,312 9.40914575,311.244091 6.26374358,309.732252 L6.26374358,309.732252 Z M116.452688,306.010818 L115.309799,308.714672 C113.02401,309.858243 110.787096,310.686835 108.59899,311.200473 C106.410884,311.714111 104.027447,311.970926 101.448608,311.970926 C98.4204261,311.970926 95.6071894,311.592972 93.0088137,310.837052 C90.410438,310.081132 88.1393354,309.00057 86.1954377,307.595335 C84.2515401,306.190099 82.6642104,304.615289 81.4334008,302.870859 C80.2025913,301.126428 79.2648457,299.231811 78.6201359,297.186951 C77.9754262,295.14209 77.6530761,292.898592 77.6530761,290.456389 C77.6530761,284.273352 79.8264969,279.151587 84.1734036,275.09094 C88.5203103,271.030293 94.4544816,269 101.976096,269 C103.753932,269 105.39987,269.101757 106.913961,269.305274 C108.428053,269.508791 110.274239,269.896436 112.452577,270.468222 C114.630914,271.040007 115.964271,271.374352 116.452688,271.471264 C116.022881,272.537305 115.700531,273.583948 115.485628,274.611224 C115.173041,276.258742 114.958141,278.167895 114.840921,280.338742 L112.994716,280.338742 L112.965411,276.908046 C112.770045,275.008555 111.710197,273.593649 109.785836,272.663286 C107.861475,271.732923 105.043354,271.267748 101.331389,271.267748 C98.5571833,271.306514 96.2030512,271.66024 94.2689219,272.328938 C92.3347926,272.997637 90.6302446,274.053971 89.1552269,275.497972 C87.6802091,276.941973 86.4738384,278.773597 85.5360788,280.992901 C84.5983191,283.212204 84.1196782,285.998406 84.1001415,289.351589 C84.1001415,295.224505 85.9072554,299.948934 89.5215374,303.525017 C93.1358194,307.1011 97.912461,308.889114 103.851605,308.889114 C106.528128,308.889114 109.009246,308.520851 111.295035,307.784314 C112.857968,307.280367 114.411109,306.485694 115.954505,305.40027 L116.452688,306.010818 Z M158.859531,311.156863 L158.859531,309.179851 C160.402927,309.160469 161.365093,309.097476 161.746058,308.990872 C162.127023,308.884268 162.478677,308.680754 162.801032,308.380325 C163.123387,308.079895 163.587376,307.299758 164.193012,306.039892 C164.544672,305.322737 165.814536,302.599528 168.002642,297.870183 L175.328852,281.472617 C176.129856,279.670038 177.839288,275.657908 180.4572,269.436105 L182.362015,269.436105 L194.875183,298.597025 C196.906995,303.32637 198.255004,306.291858 198.919251,307.493577 C199.290447,308.171966 199.695827,308.617759 200.135402,308.830967 C200.574977,309.044175 201.566447,309.160469 203.109843,309.179851 L203.109843,311.156863 C200.062124,310.963037 197.93266,310.866126 196.721388,310.866126 L187.285228,311.156863 L187.285228,309.179851 C189.473334,309.141086 190.801807,309.073248 191.270687,308.976335 C191.739567,308.879423 192.057033,308.738901 192.223094,308.554767 C192.389156,308.370632 192.472185,308.142891 192.472185,307.871535 C192.472185,307.445118 192.335431,306.892724 192.061918,306.214334 L188.457422,297.317782 L171.489918,297.317782 L168.29569,304.789723 C167.729127,306.12712 167.44585,307.105924 167.44585,307.726166 C167.44585,307.997522 167.523995,308.220418 167.680289,308.394861 C167.895192,308.646835 168.22731,308.821275 168.676653,308.918188 C169.39951,309.073248 170.669373,309.160469 172.486283,309.179851 L172.486283,311.156863 C169.184587,310.98242 166.713237,310.895199 165.072158,310.895199 C163.177102,310.895199 161.106247,310.98242 158.859531,311.156863 L158.859531,311.156863 Z M172.486283,294.846518 L187.285228,294.846518 L179.959018,277.315078 L172.486283,294.846518 Z M247.948988,311.156863 L247.948988,309.64503 C249.160261,309.082936 249.931948,308.637144 250.264071,308.30764 C250.459438,308.133197 250.596192,307.910301 250.674339,307.638945 C250.850169,307.096233 250.967387,305.933297 251.025997,304.150101 C251.104144,301.49469 251.143216,299.915035 251.143216,299.411089 L251.143216,283.769439 C251.143216,281.13341 251.113912,278.555568 251.055302,276.035835 C250.996692,274.194492 250.855053,273.104239 250.630382,272.765044 C250.40571,272.425849 250.044287,272.17388 249.546102,272.009128 C249.047918,271.844376 247.636415,271.742619 245.311553,271.703854 L245.311553,269.843137 C250.078497,269.998198 253.028489,270.075727 254.161615,270.075727 C255.411961,270.075727 258.21543,269.998198 262.572105,269.843137 L262.572105,271.703854 C260.247242,271.742619 258.83574,271.844376 258.337555,272.009128 C257.83937,272.17388 257.4926,272.401621 257.297233,272.69236 C257.062793,273.080011 256.916271,274.020051 256.857661,275.512508 C256.838124,275.90016 256.799051,278.652442 256.740441,283.769439 L256.740441,303.306964 C256.740441,305.342133 256.779514,306.999317 256.857661,308.278567 C259.08484,308.414245 261.292449,308.482082 263.480555,308.482082 C268.989893,308.482082 272.848325,308.133202 275.055968,307.435429 C275.309944,306.853952 275.534613,306.185264 275.729979,305.429344 L276.902173,300.60311 L278.865597,300.60311 C278.435791,303.491112 278.015759,306.88301 277.605489,310.778905 C276.804486,310.933965 276.169554,311.030877 275.700674,311.069642 C274.684768,311.127789 273.121859,311.156863 271.0119,311.156863 L253.663433,310.924273 C251.787913,310.924273 249.883118,311.001802 247.948988,311.156863 L247.948988,311.156863 Z M322.679073,311.156863 L322.679073,309.32522 C324.730422,309.305837 326.078432,309.150779 326.723141,308.860041 C326.996655,308.743745 327.192018,308.559614 327.309238,308.30764 C327.504605,307.919989 327.641359,306.90242 327.719506,305.254902 C327.836726,302.696404 327.895335,300.486825 327.895335,298.626099 L327.895335,283.769439 C327.895335,281.13341 327.86603,278.555568 327.80742,276.035835 C327.74881,274.194492 327.607172,273.104239 327.3825,272.765044 C327.157829,272.425849 326.796406,272.17388 326.298221,272.009128 C325.800036,271.844376 324.388534,271.742619 322.063671,271.703854 L322.063671,269.843137 L330.415551,270.017579 L339.265614,269.872211 C343.505069,269.814063 346.582047,269.78499 348.496639,269.78499 C350.430769,269.78499 352.257419,269.891592 353.976645,270.104801 C353.664058,271.209607 353.449158,272.169029 353.331938,272.983097 C353.292865,273.15754 353.117038,275.173296 352.804451,279.030426 L350.958246,279.030426 C350.977783,277.053405 350.850796,275.250853 350.577283,273.622718 C349.502767,273.176919 348.320817,272.876494 347.031397,272.721433 C344.843291,272.450078 342.655218,272.314402 340.467112,272.314402 C339.998233,272.314402 338.953037,272.353166 337.331494,272.430696 C335.709952,272.508227 334.547538,272.576065 333.844218,272.634212 C333.766071,274.785677 333.707462,276.801433 333.668389,278.681542 L333.55117,288.508452 C335.836959,288.624747 337.937118,288.682894 339.851711,288.682894 C342.176573,288.682894 344.159514,288.576291 345.800594,288.363083 C346.425767,288.285553 346.826262,288.130495 347.002092,287.897904 C347.177922,287.665313 347.334213,286.87064 347.47097,285.513861 L347.646799,283.478702 L349.405089,283.478702 L349.405089,284.031102 L349.258565,290.078431 L349.405089,296.852603 L347.353751,296.852603 L347.265836,294.875592 C347.226763,293.441282 347.094892,292.549697 346.870221,292.200811 C346.645549,291.851925 346.220633,291.609647 345.59546,291.473969 C344.48187,291.241378 342.323102,291.125085 339.11909,291.125085 C337.810134,291.125085 335.954179,291.17354 333.55117,291.270453 C333.453486,293.208709 333.404645,296.086977 333.404645,299.905341 C333.404645,303.491116 333.453486,306.214325 333.55117,308.075051 C336.364449,308.288259 339.519572,308.394861 343.016634,308.394861 C345.49779,308.394861 347.265831,308.317332 348.32081,308.162272 C349.37579,308.007211 350.352608,307.745551 351.251295,307.377282 C351.485734,306.776423 351.720171,305.962367 351.954611,304.935091 C352.384417,303.210043 352.667695,301.911431 352.804451,301.039216 L354.738571,301.039216 C354.230618,304.954493 353.976645,308.201024 353.976645,310.778905 C352.296492,311.030878 350.254942,311.156863 347.851933,311.156863 L330.356942,310.924273 C330.102965,310.924273 327.543701,311.001802 322.679073,311.156863 L322.679073,311.156863 Z M397.878035,311.156863 L397.878035,309.237999 C399.245601,309.237999 400.149158,309.145933 400.588733,308.961799 C401.028308,308.777664 401.570442,308.307644 402.215152,307.551724 C402.859862,306.795804 404.325089,304.828504 406.610878,301.649763 L414.6111,290.659905 L409.424143,281.908722 C408.9748,281.172185 408.081011,279.849345 406.74275,277.940162 C405.404489,276.03098 404.227423,274.582155 403.211516,273.593644 C402.78171,273.205993 402.386099,272.954024 402.02467,272.837728 C401.663242,272.721433 400.564322,272.663286 398.727876,272.663286 L398.727876,270.977011 L407.28489,269.581474 C408.027283,270.085421 408.720824,270.744418 409.365533,271.558485 C410.283756,272.721439 411.573157,274.727504 413.233773,277.576741 L418.156986,286.037187 C424.154741,277.58639 427.251255,272.963718 427.446621,272.169033 L427.446621,269.843137 C429.556581,269.920668 431.002272,269.959432 431.783738,269.959432 C432.565204,269.959432 433.747155,269.920668 435.329624,269.843137 L435.329624,271.616633 C434.098814,271.674781 433.327128,271.747464 433.014541,271.834686 C432.701955,271.921907 432.418678,272.043046 432.164701,272.198107 C431.813041,272.430698 431.295327,272.944328 430.611544,273.739013 C429.927761,274.533698 428.667666,276.161809 426.83122,278.623394 C424.994774,281.08498 423.304878,283.362397 421.761482,285.455713 L419.563619,288.363083 L429.49796,304.29547 C430.78738,306.369404 431.744662,307.745545 432.369835,308.423935 C432.662885,308.753439 432.985235,308.966644 433.336895,309.063556 C433.688555,309.160469 434.509082,309.218616 435.798501,309.237999 L435.798501,311.156863 C433.669006,311.079332 432.233083,311.040568 431.49069,311.040568 C430.67015,311.040568 429.214691,311.079332 427.124268,311.156863 C425.952068,309.412432 424.8678,307.697101 423.871431,306.010818 L416.164257,292.956728 L412.442542,298.189993 C408.76965,303.617111 406.552272,307.241596 405.790343,309.063556 L405.731733,311.156863 C403.69992,311.079332 402.332375,311.040568 401.629055,311.040568 C401.160175,311.040568 399.909848,311.079332 397.878035,311.156863 L397.878035,311.156863 Z" id="SCALEX" fill="#9B9B9B" opacity="0.612814832"></path>
                <g id="Group-Copy" transform="translate(149.000000, 0.000000)">
                    <path d="M145.286753,110.260162 C145.286753,150.298901 112.836779,182.756324 72.8077737,182.756324 C32.778327,182.756324 0.3336486,150.298901 0.3336486,110.260162 C0.3336486,70.2253964 32.778327,37.7675315 72.8077737,37.7675315 C112.836779,37.7675315 145.286753,70.2253964 145.286753,110.260162" id="Fill-12" fill="#FFBE03"></path>
                    <path d="M182.220683,28.3361351 C182.220683,43.5301081 169.901723,55.8480901 154.711885,55.8480901 C139.521606,55.8480901 127.21059,43.5301081 127.21059,28.3361351 C127.21059,13.1408378 139.521606,0.824621622 154.711885,0.824621622 C169.901723,0.824621622 182.220683,13.1408378 182.220683,28.3361351" id="Fill-13" fill="#424242"></path>
                </g>
            </g>
        </g>
    </g>
</svg>