<?xml version="1.0" standalone="no"?>
<!DOCTYPE svg PUBLIC "-//W3C//DTD SVG 20010904//EN"
 "http://www.w3.org/TR/2001/REC-SVG-20010904/DTD/svg10.dtd">
<svg version="1.0" xmlns="http://www.w3.org/2000/svg"
 width="1536.000000pt" height="1536.000000pt" viewBox="0 0 1536.000000 1536.000000"
 preserveAspectRatio="xMidYMid meet">
<metadata>
Created by potrace 1.11, written by Peter Selinger 2001-2013
</metadata>
<g transform="translate(0.000000,1536.000000) scale(0.100000,-0.100000)"
fill="#000000" stroke="none">
<path d="M0 7680 l0 -7680 7680 0 7680 0 0 7680 0 7680 -7680 0 -7680 0 0
-7680z m1657 3755 c3047 -2652 5954 -5183 5973 -5201 l26 -24 2419 2107 c1331
1158 2747 2391 3147 2740 401 348 731 633 734 633 10 0 -3 -837 -16 -1035 -26
-420 -63 -783 -116 -1160 -20 -137 -37 -251 -37 -252 -1 -1 -1372 -848 -3047
-1883 -1675 -1034 -3050 -1887 -3056 -1895 -15 -20 -34 -19 -58 4 -12 10
-1384 861 -3051 1891 -1667 1029 -3034 1876 -3039 1881 -28 26 -118 780 -151
1249 -31 457 -47 1206 -25 1198 5 -1 139 -116 297 -253z m2989 -4555 c1654
-1013 3013 -1839 3018 -1836 6 2 1361 830 3011 1840 1803 1103 3001 1831 3003
1823 7 -31 -153 -695 -244 -1014 -107 -376 -330 -1042 -358 -1069 -6 -6 -1219
-492 -2696 -1079 -1477 -587 -2689 -1073 -2695 -1080 -11 -13 -23 -11 -70 10
-17 8 -1194 477 -2615 1043 -1422 567 -2626 1046 -2677 1067 l-91 36 -47 127
c-197 536 -386 1185 -508 1747 -48 220 -49 225 -44 225 3 0 1359 -828 3013
-1840z m427 -1755 l2598 -1007 1347 522 c741 288 1507 585 1702 660 195 76
758 294 1250 485 492 191 901 349 908 352 14 6 -12 -57 -144 -349 -190 -420
-523 -1064 -559 -1079 -24 -11 -4471 -1020 -4500 -1022 -16 0 -4445 1001
-4507 1019 -21 6 -134 210 -312 564 -189 374 -417 876 -393 867 6 -2 1181
-458 2610 -1012z"/>
</g>
</svg>
